<?xml version="1.0" encoding="UTF-8" standalone="no"?>
<!-- Created with Inkscape (http://www.inkscape.org/) -->

<svg
   xmlns:dc="http://purl.org/dc/elements/1.1/"
   xmlns:cc="http://creativecommons.org/ns#"
   xmlns:rdf="http://www.w3.org/1999/02/22-rdf-syntax-ns#"
   xmlns:svg="http://www.w3.org/2000/svg"
   xmlns="http://www.w3.org/2000/svg"
   xmlns:sodipodi="http://sodipodi.sourceforge.net/DTD/sodipodi-0.dtd"
   xmlns:inkscape="http://www.inkscape.org/namespaces/inkscape"
   width="32px"
   height="32px"
   id="svg5641"
   version="1.1"
   inkscape:version="0.48.4 r9939"
   sodipodi:docname="20f.svg"
   inkscape:export-filename="/home/nebojsa/Documents/EU Life/avatars/20f.png"
   inkscape:export-xdpi="135"
   inkscape:export-ydpi="135">
  <defs
     id="defs5643" />
  <sodipodi:namedview
     id="base"
     pagecolor="#ffffff"
     bordercolor="#666666"
     borderopacity="1.0"
     inkscape:pageopacity="0.0"
     inkscape:pageshadow="2"
     inkscape:zoom="11.197802"
     inkscape:cx="0.10402327"
     inkscape:cy="16"
     inkscape:current-layer="layer1"
     showgrid="true"
     inkscape:grid-bbox="true"
     inkscape:document-units="px"
     inkscape:window-width="1301"
     inkscape:window-height="744"
     inkscape:window-x="65"
     inkscape:window-y="24"
     inkscape:window-maximized="1" />
  <metadata
     id="metadata5646">
    <rdf:RDF>
      <cc:Work
         rdf:about="">
        <dc:format>image/svg+xml</dc:format>
        <dc:type
           rdf:resource="http://purl.org/dc/dcmitype/StillImage" />
        <dc:title></dc:title>
      </cc:Work>
    </rdf:RDF>
  </metadata>
  <g
     id="layer1"
     inkscape:label="Layer 1"
     inkscape:groupmode="layer">
    <path
       inkscape:connector-curvature="0"
       d="m 21.527098,20.505416 c -0.470759,0.92105 -1.088807,1.734144 -1.86578,2.416806 -0.850818,0.746874 -1.818023,1.279438 -2.948969,1.450404 -1.161046,0.176986 -2.232195,-0.119997 -3.222275,-0.718379 -1.181915,-0.714367 -2.058017,-1.68438 -2.704158,-2.838203 0.006,-0.896971 0.07625,-1.831266 0.242804,-2.795662 0.166552,1.108473 0.388487,2.126646 0.675037,2.608241 0,0 -0.0301,-1.850932 0.172571,-4.087541 0.0044,0.0044 0.006,0.01044 0.01044,0.01485 0.265278,0.345144 0.660187,0.55504 1.079977,0.601594 0.06903,0.207085 0.142472,0.382466 0.221935,0.516109 0,0 -0.0028,-0.184612 0,-0.505675 0.0915,-0.0028 0.183007,-0.01044 0.27451,-0.02849 0.02127,-0.0044 0.03933,-0.01044 0.05579,-0.01646 0.0044,0 0.0088,0.0032 0.01324,0.0032 l 0.675037,0.140867 c 0.357183,0.07505 0.410961,-0.445476 0.128826,-0.580322 -0.460325,-0.220732 -0.671825,-0.753295 -1.111281,-1.003725 0.01204,-0.265279 0.02528,-0.551828 0.04334,-0.852022 0.243205,0.05699 0.484404,0.129228 0.724399,0.21752 0.364809,0.133643 0.519321,-0.445476 0.159328,-0.578717 -0.278924,-0.102339 -0.559453,-0.181802 -0.843193,-0.243206 0.06622,-0.876102 0.166552,-1.840497 0.318254,-2.792852 4.133693,-6.4140479 7.627266,-1.012554 8.564772,3.674974 0.150098,0.74848 0.235581,1.570403 0.273306,2.431254 -0.144078,1.042655 -0.459121,2.029524 -0.937908,2.965425 z m -9.317666,-6.410838 c 0.04495,-0.103544 0.0899,-0.207087 0.137656,-0.310629 0.01204,0.106753 0.02408,0.213106 0.03773,0.319859 -0.05859,-0.0032 -0.117188,-0.0076 -0.175381,-0.0092 z m 0.376447,1.417496 c -0.04655,0.0016 -0.0915,0.0076 -0.136452,0.01966 -0.114379,0.0285 -0.297385,0.112373 -0.487615,0.178593 0.03893,-0.337519 0.08227,-0.679853 0.133642,-1.021786 0.122807,0.0032 0.246015,0.0076 0.367217,0.01806 0.03773,0.272904 0.07786,0.542999 0.123208,0.805469 z m -6.138335,0.373637 c 0,0 -1.18031,4.295832 0,6.443747 0,0 0.589955,-2.294802 0.843193,-3.035657 0.253641,-0.741256 -0.337518,4.962038 1.26459,7.109954 0,0 -0.252036,-3.628421 0.126017,-4.480442 0,0 0.379257,4.888192 1.622976,6.776848 0,0 -0.526543,-3.519257 -0.3571816,-3.925402 0,0 0.9270706,3.703467 3.3719696,5.5544 0,0 -1.943639,-3.038868 -2.428445,-7.451887 0.544604,0.631291 1.179106,1.187935 1.91996,1.65428 0.79062,0.499656 1.645451,0.829548 2.578542,0.945131 0.07665,0.0088 0.148492,0.04334 0.221936,0.06582 0.28976,0 0.580723,0 0.871687,0 0.376447,-0.07946 0.76052,-0.139261 1.130947,-0.24441 1.45803,-0.413771 2.63232,-1.269004 3.61638,-2.401555 0.441061,-0.505275 0.817509,-1.049879 1.137367,-1.625787 -0.324273,3.949484 -1.21683,7.729205 -1.503379,8.447986 0,0 1.770264,-2.500684 2.023503,-3.554976 l 0,1.389001 c 0,0 2.862281,-2.944555 2.334133,-9.033125 0.07344,-0.109562 0.136452,-0.225145 0.19344,-0.345143 0.26247,1.209206 0.499656,2.890777 0.334708,4.632146 0,0 3.334246,-8.864968 -1.786718,-16.5853438 -5.12257,-7.722381 -8.536279,-3.277658 -8.536279,-3.277658 0,0 -9.316864,-4.759366 -10.243534,15.3135298 0,0 0.758915,-2.001028 1.264188,-2.371456"
       style="fill:#337ab7;fill-opacity:1;fill-rule:nonzero;stroke:none"
       id="path754" />
    <path
       inkscape:connector-curvature="0"
       d="m 20.753336,15.607991 c -0.170967,0.430626 -0.912222,-0.0028 -1.201581,-0.07625 -0.227955,-0.05859 -0.466747,0.01044 -0.673431,0.09873 -0.511695,0.22073 -0.71838,0.819113 -1.215226,1.056299 -0.281733,0.134846 -0.227955,0.655371 0.129228,0.580322 l 0.676642,-0.140867 c 0.0044,0 0.0072,-0.0032 0.01164,-0.0032 0.01685,0.006 0.03451,0.01204 0.05538,0.01646 0.591159,0.120398 1.207601,-0.104747 1.576824,-0.583534 0.05378,-0.06863 0.07023,-0.142471 0.06301,-0.211099 0.45591,0.09873 0.91182,0.04495 1.117301,-0.475576 0.141268,-0.358788 -0.398921,-0.621258 -0.539788,-0.261265"
       style="fill:#337ab7;fill-opacity:1;fill-rule:nonzero;stroke:none"
       id="path1088" />
    <path
       inkscape:connector-curvature="0"
       d="m 17.963293,15.048538 c 0.92707,-0.341933 1.882236,-0.449891 2.859072,-0.290964 0.378051,0.0602 0.541393,-0.517314 0.160531,-0.578717 -1.085998,-0.175783 -2.145106,-0.0903 -3.17853,0.290964 -0.359992,0.133241 -0.204276,0.71236 0.158927,0.578717"
       style="fill:#337ab7;fill-opacity:1;fill-rule:nonzero;stroke:none"
       id="path1090" />
    <path
       inkscape:connector-curvature="0"
       d="m 14.211665,21.362254 c 1.246529,-0.410962 2.557673,-0.402132 3.790557,0.0614 -0.848812,1.517828 -3.022413,1.539098 -3.790557,-0.0614 z m 4.33797,-0.358789 c -1.538697,-0.661391 -3.197793,-0.722795 -4.768597,-0.122807 -0.0598,0.02248 -0.103142,0.0586 -0.136452,0.100332 -0.100332,0.0586 -0.161736,0.169763 -0.107957,0.315044 0.849213,2.331323 4.063461,2.545634 5.08966,0.222336 0.01967,-0.04374 0.02689,-0.08709 0.02689,-0.129228 0.08548,-0.130431 0.07946,-0.307418 -0.103544,-0.385677"
       style="fill:#337ab7;fill-opacity:1;fill-rule:nonzero;stroke:none"
       id="path1092" />
    <path
       inkscape:connector-curvature="0"
       d="m 15.65926,19.611654 c 0.340729,0.183006 0.643331,-0.335912 0.301399,-0.518919 -0.146887,-0.07946 -0.359993,-0.166552 -0.430226,-0.333104 -0.07224,-0.168157 0.09873,-0.298588 0.197856,-0.392901 0.225146,-0.215915 0.448686,-0.430626 0.671825,-0.644937 0.28053,-0.268489 -0.143676,-0.693095 -0.424205,-0.424606 -0.369223,0.353972 -0.922656,0.7244 -1.054694,1.244924 -0.127622,0.50086 0.361598,0.866872 0.738045,1.069543"
       style="fill:#337ab7;fill-opacity:1;fill-rule:nonzero;stroke:none"
       id="path1094" />
    <path
       inkscape:connector-curvature="0"
       d="m 16.265268,18.479103 0,0.225145 c 0,0.163341 0.136452,0.299793 0.300194,0.299793 0.163341,0 0.299793,-0.136452 0.299793,-0.299793 l 0,-0.225145 c 0,-0.163342 -0.136452,-0.299794 -0.299793,-0.299794 -0.163742,0 -0.300194,0.136452 -0.300194,0.299794"
       style="fill:#337ab7;fill-opacity:1;fill-rule:nonzero;stroke:none"
       id="path1096" />
  </g>
</svg>
