<?xml version="1.0" encoding="UTF-8" standalone="no"?>
<!-- Created with Inkscape (http://www.inkscape.org/) -->

<svg
   xmlns:dc="http://purl.org/dc/elements/1.1/"
   xmlns:cc="http://creativecommons.org/ns#"
   xmlns:rdf="http://www.w3.org/1999/02/22-rdf-syntax-ns#"
   xmlns:svg="http://www.w3.org/2000/svg"
   xmlns="http://www.w3.org/2000/svg"
   xmlns:sodipodi="http://sodipodi.sourceforge.net/DTD/sodipodi-0.dtd"
   xmlns:inkscape="http://www.inkscape.org/namespaces/inkscape"
   width="32px"
   height="32px"
   id="svg4811"
   version="1.1"
   inkscape:version="0.48.4 r9939"
   sodipodi:docname="20m.svg"
   inkscape:export-filename="/home/nebojsa/Documents/EU Life/avatars/20m.png"
   inkscape:export-xdpi="135"
   inkscape:export-ydpi="135">
  <defs
     id="defs4813" />
  <sodipodi:namedview
     id="base"
     pagecolor="#ffffff"
     bordercolor="#666666"
     borderopacity="1.0"
     inkscape:pageopacity="0.0"
     inkscape:pageshadow="2"
     inkscape:zoom="11.197802"
     inkscape:cx="0.10402327"
     inkscape:cy="16"
     inkscape:current-layer="layer1"
     showgrid="true"
     inkscape:grid-bbox="true"
     inkscape:document-units="px"
     inkscape:window-width="1301"
     inkscape:window-height="744"
     inkscape:window-x="65"
     inkscape:window-y="24"
     inkscape:window-maximized="1" />
  <metadata
     id="metadata4816">
    <rdf:RDF>
      <cc:Work
         rdf:about="">
        <dc:format>image/svg+xml</dc:format>
        <dc:type
           rdf:resource="http://purl.org/dc/dcmitype/StillImage" />
        <dc:title></dc:title>
      </cc:Work>
    </rdf:RDF>
  </metadata>
  <g
     id="layer1"
     inkscape:label="Layer 1"
     inkscape:groupmode="layer">
    <path
       inkscape:connector-curvature="0"
       d="m 5.9153601,16.670953 c 0.248824,-0.129429 0.484605,-0.196651 0.699817,-0.196651 0.01505,0 0.0296,0.0015 0.04465,0.0035 -0.06672,0.54932 -0.133442,1.09864 -0.200163,1.64796 -0.07274,0.598482 0.865368,0.592963 0.937105,0 0.03963,-0.322569 0.07826,-0.643131 0.117389,-0.965198 0.207186,0.284944 0.402333,0.524738 0.572898,0.717878 0.342133,0.390294 0.380259,0.333606 0.25083,-0.168558 -0.231767,-0.898477 -0.177086,-2.167681 -0.09782,-3.02452 0.04716,-0.515708 0.441965,-1.199975 0.946637,-1.31636 0.473067,-0.110366 1.0329209,-0.17809 1.4121779,-0.273406 0.502163,-0.127924 -0.231266,-0.802659 -0.303004,-1.316361 -0.03963,-0.279426 0.02458,-0.575908 0.179595,-0.819715 0.168057,-0.157021 0.340628,-0.309024 0.51922,-0.451496 0.409858,-0.18411 0.985766,-0.170565 1.694112,0.224744 2.126545,1.186932 8.81119,1.936917 8.123912,1.625887 -0.687778,-0.313037 -5.874962,-2.6889075 -1.501473,-2.5012865 0.377751,0.01706 0.730922,0.08629 1.063523,0.1931405 1.914341,1.261679 3.35662,3.337556 3.913966,5.872453 l 0.133441,0.607513 c 0.06471,0.532263 0.129429,1.063021 0.193641,1.595285 0.07224,0.592963 1.010348,0.598482 0.937607,0 -0.06672,-0.54932 -0.133441,-1.09864 -0.200163,-1.649967 0.227754,-0.0055 0.470058,0.05819 0.731423,0.195147 0.650656,0.339625 0.771055,1.072553 0.757008,1.629397 -0.03813,1.530069 -1.220042,3.680694 -3.334547,4.651911 l -0.215213,0.09933 -0.119395,0.204678 c -1.582242,2.710982 -4.263624,4.329342 -7.17226,4.329342 -2.909639,0 -5.59052,-1.61836 -7.1722599,-4.329342 L 8.7081171,23.05158 8.4929041,22.95225 c -2.114505,-0.971217 -3.296421,-3.121842 -3.334546,-4.651911 -0.01405,-0.556844 0.106351,-1.289772 0.757008,-1.629397 z m 1.736752,7.541482 c 1.86819,3.056126 4.9729749,4.873145 8.3481559,4.873145 3.37468,0 6.478963,-1.817019 8.347654,-4.873145 2.558475,-1.278735 3.944066,-3.896407 3.993228,-5.87446 0.03411,-1.368533 -0.535774,-2.461654 -1.563178,-2.997931 -0.392801,-0.204678 -0.78761,-0.322568 -1.176899,-0.356681 -0.04364,-0.157522 -0.0908,-0.311031 -0.140464,-0.466546 C 26.4845,5.8280335 17.210778,4.6240455 14.061345,4.5753845 c -0.517715,-0.0075 -1.609331,0.0898 -1.963003,-0.286951 -0.224744,-0.241801 -0.385276,-0.579419 -0.497147,-0.896469 -0.17207,-0.48912 -0.409858,-0.670722 -0.657679,-0.21722 -0.672226,1.230075 -0.182604,3.012981 -1.0063329,2.808805 -0.668716,-0.167054 -2.399951,0.252837 -3.472003,0.549319 -0.499153,0.136954 -0.471562,0.273908 0.01706,0.444473 0.155515,0.05418 0.280429,0.116385 0.381765,0.180096 0.435442,0.279426 0.04816,1.036434 -0.313037,1.408165 -2.183233,2.2459395 -2.008153,5.3452065 -1.703644,7.0107245 -0.790118,0.586443 -1.218537,1.569198 -1.188437,2.761648 0.04916,1.978053 1.434753,4.595725 3.993228,5.87446"
       style="fill:#337ab7;fill-opacity:1;fill-rule:nonzero;stroke:none"
       id="path1402" />
    <path
       inkscape:connector-curvature="0"
       d="m 9.9893561,15.262788 c 1.4839149,-0.206183 2.7807109,-0.412366 4.2646269,-0.616542 0.596476,-0.08478 0.341632,-0.986267 -0.249326,-0.906002 -1.483916,0.206685 -2.780712,0.412367 -4.2641259,0.619051 -0.596977,0.08227 -0.342133,0.984261 0.248825,0.903493"
       style="fill:#337ab7;fill-opacity:1;fill-rule:nonzero;stroke:none"
       id="path1404" />
    <path
       inkscape:connector-curvature="0"
       d="m 12.725921,15.531177 c -1.135762,-0.09582 -1.987584,0.997304 -1.940428,2.050794 0.02709,0.601994 0.964696,0.604001 0.937606,0 -0.0612,-1.368533 1.903305,-1.463849 1.933405,-0.09732 0.01355,0.604 0.951151,0.605505 0.937606,0 -0.02458,-1.091115 -0.794131,-1.865179 -1.868189,-1.953472"
       style="fill:#337ab7;fill-opacity:1;fill-rule:nonzero;stroke:none"
       id="path1406" />
    <path
       inkscape:connector-curvature="0"
       d="m 17.746052,14.646246 c 1.483915,0.204176 2.780712,0.410359 4.264627,0.616542 0.590958,0.08077 0.845802,-0.82122 0.248824,-0.903493 -1.483414,-0.206684 -2.780209,-0.412366 -4.264126,-0.619051 -0.590957,-0.08027 -0.845802,0.821221 -0.249325,0.906002"
       style="fill:#337ab7;fill-opacity:1;fill-rule:nonzero;stroke:none"
       id="path1408" />
    <path
       inkscape:connector-curvature="0"
       d="m 18.343531,17.484649 c 0.0301,-1.366527 1.994608,-1.271211 1.933405,0.09732 -0.02709,0.604001 0.910516,0.601994 0.937606,0 0.04716,-1.05349 -0.804666,-2.146611 -1.940428,-2.050794 -1.074059,0.08829 -1.843608,0.862357 -1.868189,1.953472 -0.01355,0.605505 0.924061,0.604 0.937606,0"
       style="fill:#337ab7;fill-opacity:1;fill-rule:nonzero;stroke:none"
       id="path1410" />
    <path
       inkscape:connector-curvature="0"
       d="m 16.811455,24.69052 c 0.442466,-0.06772 0.884932,-0.134948 1.327398,-0.202671 -0.256349,0.498651 -0.93259,0.583433 -1.327398,0.202671 z m 1.761335,-1.211514 c -0.828243,0.125917 -1.655986,0.253339 -2.483728,0.378756 -0.0597,0.0095 -0.108359,0.02809 -0.151502,0.05067 -0.199159,0.08077 -0.355176,0.277419 -0.294475,0.545808 0.198658,0.877407 0.999812,1.486926 1.898289,1.443783 0.950649,-0.04515 1.637424,-0.954663 1.640434,-1.85615 0,-0.0903 -0.02258,-0.165046 -0.05769,-0.228757 -0.07876,-0.204678 -0.278423,-0.375243 -0.551327,-0.334107"
       style="fill:#337ab7;fill-opacity:1;fill-rule:nonzero;stroke:none"
       id="path1412" />
    <path
       inkscape:connector-curvature="0"
       d="m 14.523877,21.220022 c 0.512197,0.115884 1.024895,0.232271 1.537092,0.348656 0.58845,0.13294 0.838779,-0.770553 0.249326,-0.903995 -0.247319,-0.05619 -0.494137,-0.112372 -0.741456,-0.168558 0.253339,-0.258858 0.506678,-0.517716 0.759516,-0.776572 0.422901,-0.432935 -0.239293,-1.094627 -0.662695,-0.663699 -0.449489,0.461529 -0.898978,0.92055 -1.348467,1.380072 -0.237287,0.242302 -0.144981,0.703329 0.206684,0.784096"
       style="fill:#337ab7;fill-opacity:1;fill-rule:nonzero;stroke:none"
       id="path1414" />
  </g>
</svg>
