<?xml version="1.0" encoding="UTF-8" standalone="no"?>
<!-- Created with Inkscape (http://www.inkscape.org/) -->

<svg
   xmlns:dc="http://purl.org/dc/elements/1.1/"
   xmlns:cc="http://creativecommons.org/ns#"
   xmlns:rdf="http://www.w3.org/1999/02/22-rdf-syntax-ns#"
   xmlns:svg="http://www.w3.org/2000/svg"
   xmlns="http://www.w3.org/2000/svg"
   xmlns:sodipodi="http://sodipodi.sourceforge.net/DTD/sodipodi-0.dtd"
   xmlns:inkscape="http://www.inkscape.org/namespaces/inkscape"
   width="32px"
   height="32px"
   id="svg6802"
   version="1.1"
   inkscape:version="0.48.4 r9939"
   sodipodi:docname="30f.svg"
   inkscape:export-filename="/home/nebojsa/Documents/EU Life/avatars/30f.png"
   inkscape:export-xdpi="135"
   inkscape:export-ydpi="135">
  <defs
     id="defs6804" />
  <sodipodi:namedview
     id="base"
     pagecolor="#ffffff"
     bordercolor="#666666"
     borderopacity="1.0"
     inkscape:pageopacity="0.0"
     inkscape:pageshadow="2"
     inkscape:zoom="31.672167"
     inkscape:cx="-5.4529063"
     inkscape:cy="16"
     inkscape:current-layer="layer1"
     showgrid="true"
     inkscape:grid-bbox="true"
     inkscape:document-units="px"
     inkscape:window-width="1855"
     inkscape:window-height="1056"
     inkscape:window-x="1431"
     inkscape:window-y="24"
     inkscape:window-maximized="1" />
  <metadata
     id="metadata6807">
    <rdf:RDF>
      <cc:Work
         rdf:about="">
        <dc:format>image/svg+xml</dc:format>
        <dc:type
           rdf:resource="http://purl.org/dc/dcmitype/StillImage" />
        <dc:title />
      </cc:Work>
    </rdf:RDF>
  </metadata>
  <g
     id="layer1"
     inkscape:label="Layer 1"
     inkscape:groupmode="layer">
    <path
       inkscape:connector-curvature="0"
       d="m 22.369932,25.113725 c 0.08987,-0.133041 0.17665,-0.269561 0.260039,-0.406079 -0.07643,0.134779 -0.162866,0.271299 -0.260039,0.406079 z m -2.471904,1.039977 c -0.921677,0.809549 -1.96922,1.386059 -3.19476,1.571707 -1.257583,0.191736 -2.418255,-0.129997 -3.490928,-0.778679 -1.678444,-1.015632 -2.788117,-2.505601 -3.5155369,-4.299476 -0.372775,-0.918242 -0.593378,-1.876918 -0.678637,-2.866898 -0.0095,-0.111736 -0.05961,-0.23043 -0.122302,-0.323037 -0.09426,-0.141301 -0.183084,-0.284341 -0.268647,-0.429121 0.479251,0.417818 1.013022,0.778244 1.6001409,1.026935 0,0 -1.7068349,-2.78516 -1.9315259,-4.176001 -0.159605,-0.989979 1.246583,0.696943 3.5235359,2.674728 -0.682029,0.439991 -0.892112,1.340408 -0.666073,2.11387 0.117346,0.40173 0.74455,0.229125 0.626857,-0.17391 -0.129389,-0.44173 -0.08252,-0.888678 0.201431,-1.215192 -0.0071,0.549119 0.149257,1.099977 0.70142,1.350406 0.489598,0.222604 0.99624,0.0096 1.253539,-0.388687 0.340863,0.245647 0.691899,0.486077 1.052804,0.713463 0,0 -1.033282,-1.886483 -1.482491,-3.862528 0,0 1.527317,2.469949 3.54884,3.638185 0,0 -3.638664,-6.423345 -3.593665,-7.726797 0.03635,-1.056065 2.440472,3.302106 5.002245,5.582059 -0.268646,0.196518 -0.470426,0.487381 -0.542772,0.857808 -0.006,0.02913 -0.0071,0.05696 -0.0061,0.08304 -0.01443,0.03565 -0.02391,0.07652 -0.02444,0.123477 -0.0078,0.731289 0.727376,1.296929 1.426276,0.979979 0.42999,-0.195213 0.619378,-0.573901 0.678986,-0.989979 0.08322,0.03739 0.166257,0.07304 0.248951,0.102607 0,0 -0.09509,-0.157823 -0.22704,-0.406079 0,-0.01826 5.2e-4,-0.03783 2.6e-4,-0.05696 0.28382,0.326514 0.330862,0.773462 0.201604,1.215192 -0.118041,0.403035 0.509338,0.57564 0.626683,0.17391 0.254951,-0.872591 -0.04348,-1.907788 -0.949546,-2.260388 -0.116476,-0.04522 -0.235387,-0.07478 -0.354079,-0.09087 -0.154214,-0.386947 -0.285821,-0.804331 -0.330993,-1.179541 -0.134868,-1.124758 3.189282,2.515166 3.099457,3.816878 -0.08987,1.303452 1.347624,-0.672595 -1.527317,-5.838575 0,0 1.868137,2.694293 2.423168,4.195565 -0.02361,0.03609 -0.046,0.07348 -0.07013,0.109129 -0.168996,0.253472 -0.153388,0.536076 -0.187997,0.807809 -0.149127,1.164759 -0.496424,2.265171 -1.029891,3.308194 -0.510337,0.997804 -1.178802,1.878655 -2.021349,2.61777 z M 9.1947711,24.366348 c 0.184605,0.334776 0.384688,0.656509 0.6009,0.965198 -0.261733,-0.321733 -0.456208,-0.65477 -0.6009,-0.965198 z M 24.165417,20.131654 c 0.0071,-0.04565 0.01783,-0.09261 0.03957,-0.131737 0.25595,-0.45999 0.514293,-0.918242 0.779374,-1.389536 0.22317,0.130432 0.289907,0.359557 0.308951,0.580423 0.06165,0.723027 -0.123998,1.376058 -0.672204,1.878656 -0.126867,0.116954 -0.330515,0.152605 -0.503554,0.210865 -0.01957,0.0065 -0.106825,-0.08739 -0.102085,-0.128258 0.04178,-0.341297 0.097,-0.680856 0.149952,-1.020413 z M 6.6416931,17.437361 c -3.9e-4,0.0065 -6.5e-4,0.01304 -6.5e-4,0.02261 -0.01374,0.0065 -0.02513,0.01478 -0.03891,0.0213 0.01309,-0.01609 0.02617,-0.03087 0.03961,-0.04391 z m 0.740637,3.632099 c -0.523772,-0.4326 -0.81981,-1.472578 -0.596466,-2.11126 0.04617,-0.133041 0.139257,-0.248256 0.239125,-0.420862 0.09461,0.191736 0.153866,0.31869 0.218735,0.443904 0.105129,0.199996 0.192083,0.415644 0.326255,0.596075 0.249472,0.334776 0.306732,0.718246 0.353427,1.111716 0.02243,0.189996 0.062,0.378689 0.09426,0.570423 -0.272255,0.08913 -0.459557,-0.04391 -0.635335,-0.189996 z M 16.000021,3.0072249 c -1.482491,0 -8.4230859,0.539553 -11.1196829,10.2423971 -2.395863,8.620691 4.650904,15.430985 4.179087,14.891866 -0.471643,-0.538251 0,-1.482144 0,-1.482144 0.741159,1.010849 2.8976799,2.089522 2.8976799,2.089522 0,-0.433903 0.131649,-0.784765 0.05265,-1.168237 0.151692,0.108694 0.306385,0.216084 0.467077,0.316951 0.856635,0.541292 1.783572,0.898677 2.794421,1.023457 0.08152,0.01 0.159649,0.04739 0.239299,0.07174 0.314689,0 0.629248,0 0.943763,0 0.408774,-0.08609 0.824027,-0.151302 1.225323,-0.264777 0.853243,-0.24217 1.615836,-0.62564 2.305169,-1.118238 -0.06656,0.372166 0.05826,0.716506 0.05826,1.139106 0,0 2.156216,-1.078673 2.897332,-2.089522 0,0 0.471815,0.943894 0,1.482144 -0.4716,0.539119 6.575124,-6.271175 4.179261,-14.891866 C 24.42289,3.5467779 17.482294,3.0072249 16.00002,3.0072249"
       style="fill:#0055a5;fill-opacity:1;fill-rule:nonzero;stroke:none"
       id="path746" />
    <path
       inkscape:connector-curvature="0"
       d="m 16.223017,23.040288 c 0.0064,0.0035 0.01287,0.0083 0.01917,0.01131 0.360036,0.216518 0.686464,-0.346079 0.328124,-0.562163 -0.07456,-0.04391 -0.149128,-0.08956 -0.223517,-0.13304 -0.165258,-0.100867 -0.339167,-0.02478 -0.444774,0.115215 -0.172387,0.229126 -0.510033,0.235647 -0.675768,0 -0.168127,-0.237387 -0.0095,-0.473034 0.164909,-0.638682 0.35408,-0.33782 0.621074,-0.635205 0.744898,-1.124325 0.103085,-0.406514 -0.523946,-0.578683 -0.626683,-0.172605 -0.201083,0.793462 -1.380928,1.196497 -0.895373,2.162999 0.331689,0.659986 1.08963,0.737811 1.609011,0.341297"
       style="fill:#0055a5;fill-opacity:1;fill-rule:nonzero;stroke:none"
       id="path1050" />
    <path
       inkscape:connector-curvature="0"
       d="m 18.179977,23.773317 c -1.244366,1.615185 -3.53271,1.517795 -4.754989,-0.05348 -0.257126,-0.329993 -0.713638,0.133041 -0.459382,0.459556 1.511316,1.943438 4.303737,1.833006 5.775663,-0.07782 0.255777,-0.333037 -0.309428,-0.656509 -0.561292,-0.328255"
       style="fill:#0055a5;fill-opacity:1;fill-rule:nonzero;stroke:none"
       id="path1052" />
  </g>
</svg>
