<?xml version="1.0" encoding="UTF-8" standalone="no"?>
<!-- Created with Inkscape (http://www.inkscape.org/) -->

<svg
   xmlns:dc="http://purl.org/dc/elements/1.1/"
   xmlns:cc="http://creativecommons.org/ns#"
   xmlns:rdf="http://www.w3.org/1999/02/22-rdf-syntax-ns#"
   xmlns:svg="http://www.w3.org/2000/svg"
   xmlns="http://www.w3.org/2000/svg"
   xmlns:sodipodi="http://sodipodi.sourceforge.net/DTD/sodipodi-0.dtd"
   xmlns:inkscape="http://www.inkscape.org/namespaces/inkscape"
   width="32px"
   height="32px"
   id="svg6239"
   version="1.1"
   inkscape:version="0.48.4 r9939"
   sodipodi:docname="30m.svg"
   inkscape:export-filename="/home/nebojsa/Documents/EU Life/avatars/30m.png"
   inkscape:export-xdpi="135"
   inkscape:export-ydpi="135">
  <defs
     id="defs6241" />
  <sodipodi:namedview
     id="base"
     pagecolor="#ffffff"
     bordercolor="#666666"
     borderopacity="1.0"
     inkscape:pageopacity="0.0"
     inkscape:pageshadow="2"
     inkscape:zoom="22.395604"
     inkscape:cx="-7.7546619"
     inkscape:cy="16"
     inkscape:current-layer="layer1"
     showgrid="true"
     inkscape:grid-bbox="true"
     inkscape:document-units="px"
     inkscape:window-width="1855"
     inkscape:window-height="1056"
     inkscape:window-x="1431"
     inkscape:window-y="24"
     inkscape:window-maximized="1" />
  <metadata
     id="metadata6244">
    <rdf:RDF>
      <cc:Work
         rdf:about="">
        <dc:format>image/svg+xml</dc:format>
        <dc:type
           rdf:resource="http://purl.org/dc/dcmitype/StillImage" />
        <dc:title />
      </cc:Work>
    </rdf:RDF>
  </metadata>
  <g
     id="layer1"
     inkscape:label="Layer 1"
     inkscape:groupmode="layer">
    <path
       inkscape:connector-curvature="0"
       d="m 24.477725,22.422657 c -0.116787,0.10836 -0.304208,0.141269 -0.464739,0.195047 -0.01645,0.006 -0.09752,-0.08107 -0.09311,-0.118392 0.03773,-0.315044 0.08829,-0.628482 0.138058,-0.941921 0.006,-0.04214 0.01645,-0.08548 0.03612,-0.121603 0.236784,-0.424605 0.475576,-0.847607 0.719584,-1.282649 0.205881,0.1204 0.267285,0.3319 0.285345,0.535775 0.05699,0.667411 -0.113978,1.270609 -0.621258,1.733743 z m -1.541909,-0.776973 c -0.138056,1.075563 -0.45912,2.091329 -0.950749,3.054117 -0.471161,0.921052 -1.089207,1.734145 -1.866182,2.416405 -0.850417,0.747276 -1.818023,1.27984 -2.948969,1.450405 -1.161046,0.177388 -2.232195,-0.119596 -3.222275,-0.71838 -1.549131,-0.937506 -2.573726,-2.312862 -3.245551,-3.968747 -0.333104,-0.823528 -0.53417,-1.680366 -0.618048,-2.565298 0.325478,-1.457629 0.820318,-4.625724 0.302603,-5.579684 -0.6493514,-1.199975 3.550562,-2.749508 2.700145,-1.999825 -0.848812,0.750085 -1.649866,1.099642 0.300194,1.050279 1.95006,-0.05097 6.149974,-1.050279 7.551015,-0.750084 1.399436,0.299793 1.799962,1.799962 1.649865,3.949483 -0.106352,1.507394 0.09471,2.708974 0.370427,3.42013 -0.0072,0.08067 -0.01365,0.161736 -0.02248,0.241199 z M 8.565813,22.422657 c -0.4828,-0.39892 -0.757309,-1.358901 -0.550624,-1.948454 0.04214,-0.122807 0.129228,-0.22956 0.220731,-0.388487 0.08709,0.176987 0.142472,0.294175 0.20227,0.409758 0.09632,0.18421 0.176986,0.38367 0.300195,0.550223 0.230763,0.309023 0.283338,0.663397 0.327083,1.026199 0.02087,0.175381 0.05699,0.349558 0.08709,0.526545 -0.252034,0.08227 -0.424606,-0.04054 -0.586743,-0.175784 z m 16.615844,-3.326619 c 0.004,-0.02288 0.01044,-0.04374 0.01485,-0.06622 0.02849,-0.01806 0.05097,-0.04655 0.0598,-0.08388 0.28976,-1.237701 2.013069,-9.9931051 -6.625549,-11.7107951 -8.152206,-1.621371 -9.926885,-4.282186 -10.240323,-4.912273 -0.03612,-0.07625 -0.0899,-0.08027 -0.129228,-0.008 C 7.64637,3.5228719 3.255825,12.647499 7.830981,18.974458 c 0.01324,0.01806 0.0301,0.03893 0.04655,0.0598 0.0012,0.0044 0.0028,0.0076 0.0028,0.01204 0.0032,0.01204 0.0016,0.02408 0.0016,0.04495 -0.612027,0.273305 -0.901386,0.781789 -1.010948,1.420706 -0.01044,0.06461 -0.03773,0.126017 -0.05699,0.187421 0,0.145282 0,0.290964 0,0.436647 0.0614,0.256449 0.107958,0.517314 0.185815,0.769348 0.172572,0.553433 0.46193,1.036634 0.916637,1.407062 0.445476,0.363202 0.945131,0.522129 1.5270586,0.359992 0.104746,0.271299 0.19946,0.542999 0.313438,0.807074 0.7561054,1.757823 1.8778214,3.215853 3.5116334,4.246467 0.790218,0.499254 1.646655,0.829548 2.579746,0.945131 0.07505,0.0088 0.146887,0.04334 0.220731,0.06582 0.290964,0 0.580323,0 0.871287,0 0.376447,-0.07946 0.760519,-0.139662 1.130946,-0.244409 1.45803,-0.414173 2.63232,-1.269005 3.61638,-2.401557 0.838778,-0.96319 1.452011,-2.059622 1.864979,-3.268426 0.01485,-0.04535 0.03411,-0.08869 0.05659,-0.146888 0.654167,0.173776 1.198771,-0.03933 1.671136,-0.484806 0.282134,-0.26568 0.496445,-0.578716 0.646542,-0.933091 0.23237,-0.547413 0.367617,-1.112886 0.266885,-1.712874 -0.106353,-0.642127 -0.382468,-1.167066 -1.012154,-1.448799"
       style="fill:#0055a5;fill-opacity:1;fill-rule:nonzero;stroke:none"
       id="path704" />
    <path
       inkscape:connector-curvature="0"
       d="m 14.463751,19.854951 c 0.05859,0.04334 0.109563,0.08548 0.151703,0.122807 0.356782,0.322669 0.889346,-0.205481 0.529353,-0.530958 -0.910215,-0.823529 -2.962213,-1.570403 -3.532502,0.01485 -0.148492,0.412567 0.426212,0.609218 0.658582,0.31384 0.148492,0.442264 0.524939,0.801054 1.008139,0.872892 0.553434,0.08388 1.085998,-0.284945 1.184725,-0.79343"
       style="fill:#0055a5;fill-opacity:1;fill-rule:nonzero;stroke:none"
       id="path1114" />
    <path
       inkscape:connector-curvature="0"
       d="m 17.895921,19.4468 c -0.359993,0.325477 0.172572,0.853627 0.529353,0.530958 0.04214,-0.03732 0.09311,-0.07946 0.151703,-0.122807 0.09873,0.508485 0.631291,0.877307 1.185126,0.79343 0.4828,-0.07184 0.859247,-0.430628 1.007739,-0.872892 0.232771,0.295378 0.807073,0.09873 0.658581,-0.31384 -0.569887,-1.585252 -2.621886,-0.838378 -3.532502,-0.01485"
       style="fill:#0055a5;fill-opacity:1;fill-rule:nonzero;stroke:none"
       id="path1116" />
    <path
       inkscape:connector-curvature="0"
       d="m 15.951881,23.534341 c 0.315044,0.06301 0.630087,0.126017 0.945131,0.189026 0.472365,0.09311 0.673431,-0.628482 0.199461,-0.723196 l -0.54621,-0.109563 c 0.187421,-0.523333 0.375243,-1.046667 0.562664,-1.571606 0.163341,-0.456312 -0.562664,-0.651358 -0.723196,-0.199863 -0.233975,0.652964 -0.466344,1.303518 -0.698714,1.954877 -0.06622,0.181401 0.07184,0.423001 0.260864,0.460325"
       style="fill:#0055a5;fill-opacity:1;fill-rule:nonzero;stroke:none"
       id="path1140" />
    <path
       inkscape:connector-curvature="0"
       d="m 14.658797,25.238385 c 1.362113,-0.03451 2.72262,-0.07063 4.084732,-0.105148 -0.479991,2.073268 -3.430565,2.16156 -4.084732,0.105148 z m 4.402585,-0.67945 c -0.04053,-0.01966 -0.08548,-0.03171 -0.140866,-0.0301 -1.549534,0.03893 -3.099067,0.07946 -4.650206,0.119998 -0.271298,0.006 -0.350762,0.305812 -0.239995,0.478384 -0.006,0.03893 -0.0044,0.07987 0.006,0.126018 0.327083,1.293083 1.486524,2.175205 2.821747,2.145106 1.369337,-0.0301 2.399951,-1.282649 2.537606,-2.558877 0.02408,-0.220731 -0.16334,-0.313438 -0.334307,-0.280529"
       style="fill:#0055a5;fill-opacity:1;fill-rule:nonzero;stroke:none"
       id="path1172" />
  </g>
</svg>
