<?xml version="1.0" encoding="UTF-8" standalone="no"?>
<!-- Created with Inkscape (http://www.inkscape.org/) -->

<svg
   xmlns:dc="http://purl.org/dc/elements/1.1/"
   xmlns:cc="http://creativecommons.org/ns#"
   xmlns:rdf="http://www.w3.org/1999/02/22-rdf-syntax-ns#"
   xmlns:svg="http://www.w3.org/2000/svg"
   xmlns="http://www.w3.org/2000/svg"
   xmlns:sodipodi="http://sodipodi.sourceforge.net/DTD/sodipodi-0.dtd"
   xmlns:inkscape="http://www.inkscape.org/namespaces/inkscape"
   width="32px"
   height="32px"
   id="svg6802"
   version="1.1"
   inkscape:version="0.48.4 r9939"
   sodipodi:docname="40f.svg"
   inkscape:export-filename="/home/nebojsa/Documents/EU Life/avatars/40f.png"
   inkscape:export-xdpi="135"
   inkscape:export-ydpi="135">
  <defs
     id="defs6804" />
  <sodipodi:namedview
     id="base"
     pagecolor="#ffffff"
     bordercolor="#666666"
     borderopacity="1.0"
     inkscape:pageopacity="0.0"
     inkscape:pageshadow="2"
     inkscape:zoom="31.672167"
     inkscape:cx="-5.4529063"
     inkscape:cy="16"
     inkscape:current-layer="layer1"
     showgrid="true"
     inkscape:grid-bbox="true"
     inkscape:document-units="px"
     inkscape:window-width="1855"
     inkscape:window-height="1056"
     inkscape:window-x="1431"
     inkscape:window-y="24"
     inkscape:window-maximized="1" />
  <metadata
     id="metadata6807">
    <rdf:RDF>
      <cc:Work
         rdf:about="">
        <dc:format>image/svg+xml</dc:format>
        <dc:type
           rdf:resource="http://purl.org/dc/dcmitype/StillImage" />
        <dc:title />
      </cc:Work>
    </rdf:RDF>
  </metadata>
  <g
     id="layer1"
     inkscape:label="Layer 1"
     inkscape:groupmode="layer">
    <path
       inkscape:connector-curvature="0"
       d="m 20.885562,22.748801 c 0.258623,-0.313438 0.49223,-0.640488 0.702662,-0.982989 0.5636,1.118003 -0.446981,1.835748 -0.702662,0.982989 z m -1.963404,-6.774608 c -0.129128,0.137589 -0.378187,0.105951 -0.507682,-0.0096 -0.160766,-0.141636 -0.11662,-0.406881 0.02097,-0.544471 0.0011,0 0.0011,-0.0015 0.0026,-0.0026 0.378187,-0.242068 0.804198,0.214477 0.484138,0.556611 z M 13.44692,15.417582 c 0.0011,0.0011 0.0011,0.0026 0.0026,0.0026 0.137589,0.137589 0.181368,0.402834 0.0206,0.54447 -0.129128,0.115517 -0.377819,0.147155 -0.507314,0.0096 -0.320428,-0.342134 0.105951,-0.798679 0.484137,-0.556611 z m 5.851953,7.535028 c -0.779918,0.686107 -1.666521,1.173923 -2.703222,1.331009 -1.064292,0.160766 -2.046179,-0.111469 -2.953752,-0.660354 -1.260743,-0.761522 -2.142196,-1.84237 -2.755462,-3.136223 0.173275,-0.756004 0.133543,-1.4892 -0.259726,-2.050225 -0.616208,-0.877039 -0.416447,-2.882015 -0.416447,-2.882015 1.161782,0.679485 1.773576,0.50474 2.096579,0.129497 -0.0026,0.265245 0.101904,0.531962 0.305345,0.713329 0.339558,0.301299 0.991451,0.294308 1.282816,-0.08241 0.30277,-0.388855 0.30277,-0.925232 -0.05629,-1.28392 -0.0195,-0.01803 -0.03973,-0.03311 -0.05923,-0.04415 -0.01508,-0.01508 -0.03164,-0.0287 -0.05077,-0.04267 -0.336983,-0.221467 -0.805669,-0.189829 -1.111014,0.06328 0.05077,-0.238021 0.05077,-0.424907 0.05077,-0.424907 -0.371197,0.925231 -1.148171,0.765937 -1.289807,0.144211 0.07321,-0.229561 0.129496,-0.503267 0.136118,-0.806773 0.176217,-0.348019 0.510257,-0.735771 1.074225,-1.12205 2.239686,-1.535922 1.552109,-3.3069221 1.402379,-3.6302931 0.05629,0.05518 0.236551,0.08388 0.811188,-0.325579 0.05629,0.0412 0.109997,0.08903 0.159662,0.148258 0.354641,0.427851 0.377818,-0.82627 1.005063,-0.875935 0.01067,0 0.02207,0 0.03274,0 0.01104,0 0.02207,0 0.03311,0 0.626877,0.04967 0.650422,1.303786 1.005063,0.875935 0.04966,-0.05923 0.103375,-0.107054 0.159662,-0.148258 0.574637,0.409457 0.754901,0.380762 0.811188,0.325579 -0.14973,0.323371 -0.837307,2.0943711 1.402379,3.6302931 0.563968,0.386279 0.898008,0.774031 1.073857,1.12205 0.007,0.303506 0.06328,0.577212 0.136117,0.806773 -0.141267,0.621726 -0.919713,0.78102 -1.289806,-0.144211 0,0 -0.0011,0.289893 0.100801,0.610689 -0.0044,-0.007 -0.007,-0.01398 -0.01141,-0.02097 -0.277753,-0.398787 -0.86453,-0.49076 -1.26479,-0.228089 -0.0195,0.01398 -0.03568,0.02759 -0.05114,0.04267 -0.01913,0.01104 -0.03973,0.02612 -0.05886,0.04415 -0.358688,0.358688 -0.358688,0.895065 -0.05629,1.28392 0.291364,0.376714 0.94289,0.383705 1.282816,0.08241 0.254208,-0.228088 0.357584,-0.586776 0.284376,-0.911252 0.273706,0.493334 0.881453,0.85938 2.233063,0.06843 0,0 0.199394,2.004976 -0.416446,2.882015 -0.397316,0.566544 -0.434473,1.309304 -0.254577,2.07377 -0.03569,0.07542 -0.07137,0.152673 -0.109997,0.226985 -0.431529,0.843929 -0.998073,1.589265 -1.710299,2.215038 z m -8.885168,-1.18827 c 0.0026,-0.0055 0.004,-0.0096 0.0066,-0.01508 0.210431,0.34949 0.441463,0.680588 0.695672,0.992922 -0.251634,0.863428 -1.2688368,0.14274 -0.702294,-0.977839 z m 15.302193,-6.434683 c 0,0 0.495172,0.406881 0.463535,1.115061 -0.0195,0.456177 -0.849816,0.785066 -1.317398,0.453602 -0.05371,-0.30093 -0.151201,-0.573533 -0.311967,-0.801622 0.0055,-0.126552 0.02318,-0.266716 0.06033,-0.426379 0.435943,-1.882101 1.109542,-1.950896 1.192317,-3.816811 0.08241,-1.8644431 -0.314911,-4.4591381 -1.947218,-4.5264621 0,0 -0.536009,-1.773943 -2.175306,-2.91917 -1.194892,-0.836204 -2.781581,-1.578596 -4.148275,-1.307832 0,0 -0.576109,-0.629452 -1.531875,-0.552564 -0.955399,-0.07689 -1.531507,0.552564 -1.531507,0.552564 -5.7393798,0.893961 -6.3239498,4.227002 -6.3239498,4.227002 -1.63194,0.06732 -2.029255,2.662019 -1.946849,4.5264621 0.08277,1.865915 0.7549,1.93471 1.192317,3.816811 0.03826,0.166652 0.05629,0.312335 0.06033,0.444038 -0.149729,0.220363 -0.242068,0.481561 -0.292836,0.771455 -0.46464,0.353538 -1.317398,0.02207 -1.337999,-0.441094 -0.03017,-0.70818 0.464638,-1.115061 0.464638,-1.115061 0,0 -1.138237,-0.339926 -1.077904,1.011685 0.0607,1.350507 0.954295,1.281712 0.954295,1.281712 -2.110559,2.276843 -0.0206,3.77009 -0.0206,3.77009 -0.576108,0.02354 -1.545485,2.029624 -0.167755,2.87392 1.37773,0.845401 1.329538,2.362192 0.816706,2.382794 -0.511362,0.02207 -0.705237,-0.743864 -0.705237,-0.743864 0,0 -0.247586,1.654012 0.967907,1.603244 1.216964,-0.0493 0.782492,-2.609778 0.782492,-2.609778 0,0 0.345076,0.533432 1.120578,1.403849 0.776974,0.870417 0.814131,3.155722 0.814131,3.155722 1.7408338,-2.681149 0.8921218,-5.191967 0.8921218,-5.191967 0.521294,-0.235079 0.503267,-1.175761 0.482666,-1.491775 0.523868,0.63497 1.142652,1.191949 1.875479,1.654013 0.724735,0.456545 1.50833,0.758947 2.363664,0.864898 0.07027,0.0096 0.136117,0.0412 0.20344,0.0618 0.265614,0 0.532331,0 0.799047,0 0.345077,-0.07431 0.697143,-0.127656 1.036702,-0.225513 1.336527,-0.379659 2.41296,-1.163254 3.315015,-2.199955 0.0412,-0.04672 0.07836,-0.09639 0.118459,-0.144579 -0.0206,0.328889 -0.03054,1.250074 0.483769,1.481106 0,0 -0.848344,2.510818 0.892489,5.191968 0,0 0.03716,-2.285306 0.814131,-3.155723 0.775502,-0.870416 1.120579,-1.403849 1.120579,-1.403849 0,0 -0.434472,2.560482 0.781021,2.609778 1.216964,0.05077 0.969377,-1.603244 0.969377,-1.603244 0,0 -0.193875,0.765938 -0.706707,0.743864 -0.511729,-0.0206 -0.561025,-1.537393 0.817809,-2.382794 1.378099,-0.844296 0.408721,-2.850376 -0.167388,-2.87392 0,0 2.089957,-1.493247 -0.02207,-3.77009 0,0 0.895064,0.06879 0.955397,-1.281712 0.05923,-1.351611 -1.077903,-1.011685 -1.077903,-1.011685"
       style="fill:#0055a5;fill-opacity:1;fill-rule:nonzero;stroke:none"
       id="path876" />
    <path
       inkscape:connector-curvature="0"
       d="m 15.214977,17.979167 c 0.356113,-0.504738 1.075329,-0.527915 1.450572,-0.03053 0.210431,0.280696 0.68905,0.007 0.476043,-0.277386 -0.631291,-0.838778 -1.793073,-0.833259 -2.400819,0.03164 -0.204912,0.289894 0.272235,0.565072 0.474204,0.276281"
       style="fill:#0055a5;fill-opacity:1;fill-rule:nonzero;stroke:none"
       id="path1208" />
    <path
       inkscape:connector-curvature="0"
       d="m 17.89208,14.464758 c 0.547412,-0.147153 1.091883,-0.158191 1.644447,-0.03053 0.345076,0.07983 0.49223,-0.450659 0.147153,-0.530491 -0.647477,-0.150097 -1.295323,-0.141636 -1.937283,0.03017 -0.342134,0.09087 -0.197923,0.621359 0.145683,0.530858"
       style="fill:#0055a5;fill-opacity:1;fill-rule:nonzero;stroke:none"
       id="path1210" />
    <path
       inkscape:connector-curvature="0"
       d="m 14.140016,13.9339 c -0.643799,-0.171803 -1.291278,-0.180264 -1.937652,-0.03017 -0.346548,0.07983 -0.199394,0.610322 0.145682,0.530491 0.552932,-0.127657 1.097402,-0.116619 1.644816,0.03053 0.343605,0.0905 0.489287,-0.439991 0.147154,-0.530858"
       style="fill:#0055a5;fill-opacity:1;fill-rule:nonzero;stroke:none"
       id="path1212" />
    <path
       inkscape:connector-curvature="0"
       d="m 14.198878,20.17765 3.590193,0 c -0.456546,1.464552 -3.571063,1.504284 -3.590193,0 z m 3.950353,-0.538951 c -0.02318,-0.007 -0.04782,-0.01104 -0.07542,-0.01104 l -4.159312,0 c -0.218891,0 -0.301298,0.208959 -0.252001,0.368621 -0.18799,2.509346 4.548535,2.415903 4.73027,-0.09344 0.01214,-0.171803 -0.109998,-0.260095 -0.24354,-0.264142"
       style="fill:#0055a5;fill-opacity:1;fill-rule:nonzero;stroke:none"
       id="path1214" />
  </g>
</svg>
