<?xml version="1.0" encoding="UTF-8" standalone="no"?>
<!-- Created with Inkscape (http://www.inkscape.org/) -->

<svg
   xmlns:dc="http://purl.org/dc/elements/1.1/"
   xmlns:cc="http://creativecommons.org/ns#"
   xmlns:rdf="http://www.w3.org/1999/02/22-rdf-syntax-ns#"
   xmlns:svg="http://www.w3.org/2000/svg"
   xmlns="http://www.w3.org/2000/svg"
   xmlns:sodipodi="http://sodipodi.sourceforge.net/DTD/sodipodi-0.dtd"
   xmlns:inkscape="http://www.inkscape.org/namespaces/inkscape"
   width="32px"
   height="32px"
   id="svg6802"
   version="1.1"
   inkscape:version="0.48.4 r9939"
   sodipodi:docname="40m.svg"
   inkscape:export-filename="/home/nebojsa/Documents/EU Life/avatars/40m.png"
   inkscape:export-xdpi="135"
   inkscape:export-ydpi="135">
  <defs
     id="defs6804" />
  <sodipodi:namedview
     id="base"
     pagecolor="#ffffff"
     bordercolor="#666666"
     borderopacity="1.0"
     inkscape:pageopacity="0.0"
     inkscape:pageshadow="2"
     inkscape:zoom="11.197802"
     inkscape:cx="0.10402327"
     inkscape:cy="16"
     inkscape:current-layer="layer1"
     showgrid="true"
     inkscape:grid-bbox="true"
     inkscape:document-units="px"
     inkscape:window-width="1301"
     inkscape:window-height="744"
     inkscape:window-x="65"
     inkscape:window-y="24"
     inkscape:window-maximized="1" />
  <metadata
     id="metadata6807">
    <rdf:RDF>
      <cc:Work
         rdf:about="">
        <dc:format>image/svg+xml</dc:format>
        <dc:type
           rdf:resource="http://purl.org/dc/dcmitype/StillImage" />
        <dc:title></dc:title>
      </cc:Work>
    </rdf:RDF>
  </metadata>
  <g
     id="layer1"
     inkscape:label="Layer 1"
     inkscape:groupmode="layer">
    <path
       inkscape:connector-curvature="0"
       d="m 25.285436,20.423722 c -0.138593,0.124078 -0.35725,0.162939 -0.542663,0.22568 -0.02107,0.007 -0.11565,-0.09271 -0.110501,-0.136251 0.04401,-0.36755 0.103477,-0.733229 0.161067,-1.098907 0.007,-0.04916 0.0192,-0.09973 0.04214,-0.141869 0.276717,-0.495375 0.554838,-0.988876 0.839983,-1.497829 0.239727,0.141401 0.311365,0.388152 0.332435,0.626474 0.06649,0.778647 -0.132975,1.48191 -0.722461,2.022702 z m -1.801234,-0.90647 c -0.160598,1.252951 -0.535172,2.439414 -1.109207,3.561265 -0.549688,1.076432 -1.270743,2.023168 -2.177213,2.821011 -0.992154,0.871822 -2.121026,1.492679 -3.440464,1.69214 -1.354554,0.205079 -2.603759,-0.139997 -3.758852,-0.839983 -1.807789,-1.091884 -3.0031482,-2.696466 -3.7869452,-4.628333 -0.351631,-0.868076 -0.575908,-1.767521 -0.689685,-2.695061 0.278122,-0.735102 0.484606,-1.900495 0.446211,-3.351503 0.274844,-0.04729 0.545943,-0.08896 0.798312,-0.12595 0.3427352,1.139173 1.4734812,1.977751 2.8210122,1.977751 1.277298,0 2.360286,-0.752893 2.762953,-1.802638 l 1.286194,0 c 0.03512,0 0.06649,-0.0037 0.09645,-0.01077 0.398921,1.055363 1.485655,1.813407 2.766698,1.813407 1.352681,0 2.484832,-0.841855 2.822886,-1.986647 0.21538,0.02997 0.442933,0.06508 0.677043,0.103476 0.115649,1.181313 0.33103,2.40617 0.50942,3.22321 -0.0089,0.08241 -0.01405,0.166686 -0.02482,0.248624 z m -16.7645352,0.90647 c -0.563735,-0.465409 -0.882123,-1.585385 -0.642396,-2.273198 0.04869,-0.143275 0.150299,-0.26782 0.257051,-0.455108 0.101604,0.208358 0.166218,0.345078 0.236451,0.478051 0.111904,0.216785 0.206484,0.44949 0.349759,0.6438 0.269693,0.360527 0.33103,0.773496 0.381596,1.197232 0.02435,0.204612 0.06649,0.40735 0.101604,0.612429 -0.294041,0.09786 -0.495375,-0.04542 -0.684065,-0.203206 z M 22.156337,13.731954 c -0.02997,-0.007 -0.06321,-0.01217 -0.09833,-0.01217 l -2.994252,0 c -0.06976,0 -0.127824,0.01545 -0.178392,0.0398 -1.323182,0.01779 -2.31674,0.175113 -2.31674,1.472076 0,0.06461 0.0052,0.129229 0.0103,0.194311 l -1.070814,0 c 0.0052,-0.06508 0.0103,-0.129697 0.0103,-0.194311 0,-1.296963 -0.994026,-1.454284 -2.31721,-1.472076 -0.05057,-0.02435 -0.108158,-0.0398 -0.178391,-0.0398 l -2.994252,0 c -0.03465,0 -0.06836,0.0052 -0.09786,0.01217 -0.18916,0.0019 -0.377852,0.113777 -0.377852,0.337585 l 0,1.0062 c 0,0.08943 0.03137,0.157789 0.07679,0.210229 -0.230832,0.03839 -0.461664,0.08053 -0.69109,0.125951 -0.162939,-2.474531 0.307619,-4.198509 1.928121,-4.54499 1.633143,-0.349758 6.533042,0.815636 8.808112,0.875099 2.27507,0.05806 1.342381,-0.350227 0.349759,-1.224857 -0.99028,-0.8750989 3.909618,0.932689 3.150169,2.33266 -0.258924,0.479455 -0.301064,1.438365 -0.232705,2.511052 -0.157321,-0.02763 -0.316982,-0.05759 -0.476176,-0.08381 0.04214,-0.05244 0.06836,-0.118927 0.06836,-0.201333 l 0,-1.0062 c 0,-0.223808 -0.18916,-0.335712 -0.377852,-0.337585 z M 5.9616208,21.459887 c 0.519722,0.423269 1.102653,0.610557 1.781569,0.421865 0.122674,0.316515 0.234577,0.633499 0.365679,0.941118 0.882121,2.051262 2.1907902,3.752297 4.0969052,4.95468 0.922389,0.582463 1.921565,0.965933 3.009703,1.102185 0.08756,0.01077 0.171836,0.05104 0.25752,0.07726 0.339458,0 0.677043,0 1.016501,0 0.439656,-0.09458 0.887272,-0.162939 1.319437,-0.285613 1.702908,-0.484604 3.071509,-1.481908 4.219579,-2.801346 0.978106,-1.125597 1.694011,-2.402894 2.17534,-3.813634 0.01732,-0.05244 0.04027,-0.103008 0.06649,-0.171367 0.762727,0.203205 1.398099,-0.04729 1.94919,-0.567013 0.329157,-0.308087 0.579186,-0.675637 0.754299,-1.086733 0.271099,-0.638649 0.428888,-1.298367 0.311366,-1.998353 -0.09411,-0.575908 -0.309492,-1.06941 -0.736508,-1.417763 -0.07866,-0.199461 -0.218657,-0.358655 -0.397048,-0.489756 0.07491,-0.334308 0.153576,-0.665338 0.206484,-1.00105 0.493033,-3.130504 -0.231299,-5.9533879 -2.229652,-8.4157459 -1.67107,-2.059689 -3.85156,-3.281269 -6.466088,-3.723735 -0.346949,-0.05993 -0.696708,-0.09645 -1.046466,-0.141871 -0.423738,0 -0.847006,0 -1.270743,0 -0.365678,0.05385 -0.736975,0.09271 -1.10078,0.166218 -4.242053,0.857307 -7.0349722,3.356185 -8.3263172,7.4774369 -0.586208,1.870998 -0.544537,3.780391 -0.02809,5.675268 0.0038,0.01592 0.007,0.02997 0.0103,0.04589 -0.08381,0.07491 -0.157321,0.159194 -0.214911,0.253306 -0.553434,0.33618 -0.831556,0.875098 -0.943459,1.53154 -0.01218,0.07538 -0.04401,0.147021 -0.06649,0.220531 0,0.169495 0,0.339458 0,0.507547 0.07164,0.301065 0.125951,0.605407 0.216784,0.899447 0.201334,0.645672 0.539388,1.209407 1.06941,1.639698"
       style="fill:#337ab7;fill-opacity:1;fill-rule:nonzero;stroke:none"
       id="path732" />
    <path
       inkscape:connector-curvature="0"
       d="m 15.756269,19.671296 c 0.04401,0.239727 0.570757,2.518075 0.176986,2.52182 -0.451362,0.0038 -0.451362,0.703731 0,0.699986 0.831087,-0.007 0.962656,-0.731355 0.854029,-1.419168 -0.225681,-1.440238 -0.512698,-2.873453 -0.770218,-4.310413 -0.08007,-0.442465 -0.754299,-0.253773 -0.675638,0.187288 0.138592,0.773496 0.276717,1.546992 0.414841,2.320487"
       style="fill:#337ab7;fill-opacity:1;fill-rule:nonzero;stroke:none"
       id="path1348" />
    <path
       inkscape:connector-curvature="0"
       d="m 18.603501,24.323039 c -0.444339,0.129228 -0.873226,-0.09645 -1.187869,-0.409691 0.167622,-0.06461 0.330562,-0.139997 0.491629,-0.224276 0.0033,0.0037 0.0084,0.0075 0.01217,0.01077 0.147021,0.103008 0.292168,0.204612 0.437316,0.308087 0.157789,0.108628 0.388622,0.02809 0.479924,-0.125949 0.101135,-0.175114 0.0295,-0.369424 -0.12642,-0.479456 -0.05431,-0.03886 -0.110031,-0.07726 -0.164344,-0.115649 0.152171,-0.113777 0.301064,-0.236451 0.442934,-0.37083 0.689218,0.356783 0.223809,1.228136 -0.385343,1.406995 z m 0.460258,-2.133668 c 0,0 -0.0014,0 -0.0033,0 -0.118928,-0.06602 -0.269694,-0.06602 -0.393771,0.06134 -1.058641,1.107803 -2.562088,1.538563 -4.043997,1.144792 -0.437784,-0.115649 -0.623198,0.559989 -0.187287,0.675171 0.755703,0.199461 1.522176,0.215381 2.250254,0.06321 0.649418,0.79597 1.835882,1.305391 2.738605,0.561862 0.894297,-0.736975 0.75945,-2.089657 -0.360526,-2.50637"
       style="fill:#337ab7;fill-opacity:1;fill-rule:nonzero;stroke:none"
       id="path1354" />
  </g>
</svg>
