<?xml version="1.0" encoding="UTF-8" standalone="no"?>
<!-- Created with Inkscape (http://www.inkscape.org/) -->

<svg
   xmlns:dc="http://purl.org/dc/elements/1.1/"
   xmlns:cc="http://creativecommons.org/ns#"
   xmlns:rdf="http://www.w3.org/1999/02/22-rdf-syntax-ns#"
   xmlns:svg="http://www.w3.org/2000/svg"
   xmlns="http://www.w3.org/2000/svg"
   xmlns:sodipodi="http://sodipodi.sourceforge.net/DTD/sodipodi-0.dtd"
   xmlns:inkscape="http://www.inkscape.org/namespaces/inkscape"
   width="32px"
   height="32px"
   id="svg6802"
   version="1.1"
   inkscape:version="0.48.4 r9939"
   sodipodi:docname="50f.svg"
   inkscape:export-filename="/home/nebojsa/Documents/EU Life/avatars/50f.png"
   inkscape:export-xdpi="135"
   inkscape:export-ydpi="135">
  <defs
     id="defs6804" />
  <sodipodi:namedview
     id="base"
     pagecolor="#ffffff"
     bordercolor="#666666"
     borderopacity="1.0"
     inkscape:pageopacity="0.0"
     inkscape:pageshadow="2"
     inkscape:zoom="22.395604"
     inkscape:cx="-7.7546619"
     inkscape:cy="16"
     inkscape:current-layer="layer1"
     showgrid="true"
     inkscape:grid-bbox="true"
     inkscape:document-units="px"
     inkscape:window-width="1855"
     inkscape:window-height="1056"
     inkscape:window-x="1431"
     inkscape:window-y="24"
     inkscape:window-maximized="1" />
  <metadata
     id="metadata6807">
    <rdf:RDF>
      <cc:Work
         rdf:about="">
        <dc:format>image/svg+xml</dc:format>
        <dc:type
           rdf:resource="http://purl.org/dc/dcmitype/StillImage" />
        <dc:title />
      </cc:Work>
    </rdf:RDF>
  </metadata>
  <g
     id="layer1"
     inkscape:label="Layer 1"
     inkscape:groupmode="layer">
    <path
       inkscape:connector-curvature="0"
       d="m 21.464482,23.700151 c -0.47076,0.921052 -1.088806,1.734146 -1.865781,2.416406 -0.850818,0.747276 -1.818022,1.27984 -2.948969,1.450405 -1.161046,0.177388 -2.232195,-0.119597 -3.222274,-0.71838 -1.549534,-0.937506 -2.573726,-2.312862 -3.245953,-3.968748 -0.2640761,-0.652561 -0.4454761,-1.329203 -0.5506251,-2.022299 0.3692231,-0.71517 0.8853331,-1.547928 1.4640501,-2.444899 0.100734,0.22635 0.477181,0.289358 0.655773,0.06301 0.148492,0.442667 0.524939,0.801054 1.007738,0.872892 0.553835,0.08428 1.085998,-0.284945 1.185126,-0.793429 0.05859,0.04374 0.109563,0.08548 0.151302,0.123209 0.357183,0.322267 0.889747,-0.205883 0.529754,-0.530959 -0.678246,-0.612028 -1.986179,-1.182317 -2.847031,-0.781791 1.948455,-2.969838 4.222388,-6.383948 4.222388,-8.6037007 0,2.2197527 2.273933,5.6338627 4.222789,8.6037007 -0.859649,-0.400526 -2.169186,0.169763 -2.847032,0.781791 -0.359992,0.325076 0.172572,0.853226 0.529353,0.530959 0.04214,-0.03773 0.09311,-0.07946 0.152907,-0.123209 0.09752,0.508484 0.630087,0.877708 1.183521,0.793429 0.483201,-0.07184 0.859648,-0.430225 1.00814,-0.872892 0.17819,0.22635 0.555038,0.163342 0.655371,-0.06301 0.585138,0.904596 1.104058,1.744579 1.474485,2.466169 -0.151302,0.988475 -0.458721,1.92879 -0.915032,2.821346 z M 15.99998,3.5746823 c 0,0 -4.909464,-1.990595 -8.3817661,4.085533 -3.47431,6.0813457 -1.945647,10.5365047 -1.945647,14.5714717 0,4.034967 3.520463,5.503431 3.520463,5.503431 0,0 -0.449891,-2.40597 -0.197856,-4.870535 0.07786,0.207086 0.154512,0.414173 0.2412,0.615239 0.756104,1.757824 1.8782221,3.215854 3.5116331,4.246468 0.790619,0.499254 1.647056,0.829548 2.580147,0.945131 0.07505,0.0088 0.146887,0.04334 0.22033,0.06582 0.290964,0 0.580724,0 0.871688,0 0.376447,-0.07946 0.760519,-0.139662 1.130946,-0.244409 1.45803,-0.414173 2.63232,-1.269005 3.61638,-2.401557 0.823529,-0.94513 1.426727,-2.019089 1.838892,-3.201004 0.24762,2.455334 -0.197855,4.84485 -0.197855,4.84485 0,0 3.518856,-1.468464 3.518856,-5.503432 0,-4.034967 1.528665,-8.490126 -1.945243,-14.5714717 -3.472704,-6.076128 -8.382168,-4.085533 -8.382168,-4.085533"
       style="fill:#0055a5;fill-opacity:1;fill-rule:nonzero;stroke:none"
       id="path778" />
    <path
       inkscape:connector-curvature="0"
       d="m 15.431697,22.234897 c 0.315044,0.06261 0.629686,0.125616 0.94473,0.188626 0.472766,0.09311 0.673832,-0.628482 0.19946,-0.722795 l -0.545808,-0.109563 c 0.187421,-0.523734 0.375243,-1.047069 0.562664,-1.572008 0.163341,-0.45591 -0.562664,-0.650956 -0.723195,-0.19946 -0.233976,0.652561 -0.466345,1.303518 -0.699116,1.954475 -0.06582,0.1814 0.07224,0.423001 0.261265,0.460725"
       style="fill:#0055a5;fill-opacity:1;fill-rule:nonzero;stroke:none"
       id="path1138" />
    <path
       inkscape:connector-curvature="0"
       d="m 14.667967,23.995931 c 0.890952,-0.01806 1.783508,-0.03612 2.676065,-0.05257 -0.868477,0.376446 -1.804377,0.392901 -2.676065,0.05257 z m 3.769688,-0.675036 c -1.575218,0.0313 -3.150035,0.06301 -4.724852,0.09431 -0.03612,0 -0.06782,0.0076 -0.09752,0.01806 -0.250831,-0.02849 -0.430627,0.378051 -0.168157,0.573098 1.495353,1.109677 3.447019,1.117301 4.952807,0.02248 0.04495,-0.03291 0.07665,-0.07224 0.09752,-0.115584 0.325477,-0.06461 0.306213,-0.599987 -0.0598,-0.592362"
       style="fill:#0055a5;fill-opacity:1;fill-rule:nonzero;stroke:none"
       id="path1170" />
  </g>
</svg>
