<?xml version="1.0" encoding="UTF-8" standalone="no"?>
<!-- Created with Inkscape (http://www.inkscape.org/) -->

<svg
   xmlns:dc="http://purl.org/dc/elements/1.1/"
   xmlns:cc="http://creativecommons.org/ns#"
   xmlns:rdf="http://www.w3.org/1999/02/22-rdf-syntax-ns#"
   xmlns:svg="http://www.w3.org/2000/svg"
   xmlns="http://www.w3.org/2000/svg"
   xmlns:sodipodi="http://sodipodi.sourceforge.net/DTD/sodipodi-0.dtd"
   xmlns:inkscape="http://www.inkscape.org/namespaces/inkscape"
   width="32px"
   height="32px"
   id="svg4720"
   version="1.1"
   inkscape:version="0.48.4 r9939"
   sodipodi:docname="50m.svg"
   inkscape:export-filename="/home/nebojsa/Documents/EU Life/avatars/50m.png"
   inkscape:export-xdpi="135"
   inkscape:export-ydpi="135">
  <defs
     id="defs4722" />
  <sodipodi:namedview
     id="base"
     pagecolor="#ffffff"
     bordercolor="#666666"
     borderopacity="1.0"
     inkscape:pageopacity="0.0"
     inkscape:pageshadow="2"
     inkscape:zoom="11.197802"
     inkscape:cx="0.10402327"
     inkscape:cy="16"
     inkscape:current-layer="layer1"
     showgrid="true"
     inkscape:grid-bbox="true"
     inkscape:document-units="px"
     inkscape:window-width="1301"
     inkscape:window-height="744"
     inkscape:window-x="65"
     inkscape:window-y="24"
     inkscape:window-maximized="1" />
  <metadata
     id="metadata4725">
    <rdf:RDF>
      <cc:Work
         rdf:about="">
        <dc:format>image/svg+xml</dc:format>
        <dc:type
           rdf:resource="http://purl.org/dc/dcmitype/StillImage" />
        <dc:title></dc:title>
      </cc:Work>
    </rdf:RDF>
  </metadata>
  <g
     id="layer1"
     inkscape:label="Layer 1"
     inkscape:groupmode="layer">
    <path
       inkscape:connector-curvature="0"
       d="M 9.9566625,18.095611 10.166224,18.5956 c 1.963002,4.639034 4.184261,7.525931 5.79814,7.53028 l 0.0048,0.647812 0,-0.647812 c 1.646053,0 3.917745,-2.891246 5.927703,-7.543323 l 0.214778,-0.495642 0.526511,0.121737 c 0.209561,0.04782 0.425643,0.06956 0.643465,0.06956 1.017371,0 1.909526,-0.543466 1.909526,-1.165193 0,-0.526076 -0.638683,-1.013023 -1.485187,-1.134759 l -0.741288,-0.108694 0.211299,-0.717376 c 0.120432,-0.413035 0.147823,-0.578249 0.152606,-0.617379 l 0.0035,-0.02609 c 0.06826,-0.399992 0.102171,-0.804331 0.10391,-1.199975 l 0.0017,-0.05217 c 0,-4.0651326 -3.316888,-7.3824556 -7.39376,-7.3824556 -4.077307,0 -7.3937605,3.317323 -7.3937605,7.3954986 l 0.0017,0.03913 c 0.0013,0.395644 0.03739,0.799983 0.103912,1.199975 l 0.003,0.02609 c 0.0048,0.03913 0.03261,0.204344 0.149561,0.608683 l 0.209561,0.734768 -0.755636,0.0913 c -0.870852,0.104346 -1.553446,0.608683 -1.553446,1.143455 0,0.621727 0.892155,1.165193 1.909526,1.165193 0.0048,0 0.0213,0 0.03739,0 0.02913,0 0.04522,0 0.06,0 0.203041,0 0.411297,-0.02174 0.610857,-0.06522 l 0.529989,-0.117388 z m 6.0124845,9.330242 -0.0083,0 c -1.548663,-0.0043 -3.971222,-1.386928 -6.7924675,-7.860708 -0.134779,0.0087 -0.273038,0.02174 -0.407818,0.01304 -0.01131,0 -0.02782,0 -0.04217,0 -1.799095,0 -3.2095,-1.082587 -3.2095,-2.465167 0,-1.026066 0.799548,-1.913004 1.982568,-2.282562 -0.0083,-0.04348 -0.01478,-0.08261 -0.01957,-0.117388 -0.07783,-0.460861 -0.118693,-0.930416 -0.120432,-1.391276 l -0.0013,-0.03913 c 0,-4.8085956 3.8999185,-8.7085146 8.6937325,-8.7085146 4.793813,0 8.693733,3.899919 8.693733,8.6954716 l -0.0017,0.04782 c -0.0017,0.465208 -0.04217,0.930416 -0.119997,1.395624 -0.0052,0.04348 -0.01348,0.0913 -0.02478,0.143475 1.147368,0.382601 1.899962,1.2478 1.899962,2.256475 0,1.38258 -1.409101,2.465167 -3.2095,2.465167 -0.131735,0 -0.263472,-0.0043 -0.394774,-0.01739 -2.886031,6.482475 -5.347719,7.865055 -6.917687,7.865055"
       style="fill:#337ab7;fill-opacity:1;fill-rule:nonzero;stroke:none"
       id="path3549" />
    <path
       inkscape:connector-curvature="0"
       d="m 6.6984685,15.873917 c 0.02609,0.265212 0.235648,0.36521 0.461295,0.217387 l 0.455208,-0.291298 c 0.225648,-0.143476 0.643465,-0.321733 0.882157,-0.195649 0.336514,0.17391 0.752592,0.695638 0.882589,2.156478 0.02435,0.26956 0.24043,0.430426 0.500425,0.352167 l 0.4956415,-0.139129 c 0.258256,-0.07391 0.479555,-0.352166 0.486077,-0.621726 0.02609,-0.934763 0.04043,-3.043415 -0.253473,-4.830335 -0.04391,-0.265211 -0.157823,-0.686942 -0.198257,-0.952154 -0.120432,-0.778244 -0.06348,-2.2347356 2.052132,-2.2347356 2.463428,0 3.316888,0 3.513405,0 0.03391,0 0.04869,0 0.04869,0 0.196518,0 1.049544,0 3.51297,0 2.116045,0 2.173001,1.4564916 2.052569,2.2347356 -0.04044,0.265212 -0.154345,0.686943 -0.198259,0.952154 -0.293906,1.78692 -0.279559,3.895572 -0.253473,4.830335 0.0065,0.26956 0.227821,0.547815 0.486077,0.621726 l 0.496947,0.139129 c 0.258689,0.07826 0.474773,-0.08261 0.499119,-0.352167 0.129998,-1.46084 0.546076,-1.982568 0.882157,-2.156478 0.239124,-0.126084 0.656509,0.05217 0.88259,0.195649 l 0.454774,0.291298 c 0.226081,0.147823 0.435643,0.04782 0.461728,-0.217387 C 26.348058,4.7741474 16.905209,4.6611054 16.000011,4.6741484 c -0.905199,-0.01304 -10.3480475,0.1 -9.3015475,11.1997686"
       style="fill:#337ab7;fill-opacity:1;fill-rule:nonzero;stroke:none"
       id="path3559" />
    <path
       inkscape:connector-curvature="0"
       d="m 14.555263,15.682617 c -0.03391,-0.01304 -0.0713,-0.02174 -0.115215,-0.02609 -1.00911,-0.104345 -2.019958,-0.208691 -3.030807,-0.313037 -0.246951,-0.02174 -0.397818,0.143476 -0.433904,0.330428 -0.04522,0.05652 -0.07609,0.126085 -0.0813,0.199996 -0.01435,0.23043 -0.02913,0.46086 -0.04522,0.69129 -0.01304,0.213039 0.115215,0.40434 0.329993,0.447817 0.03043,0.01304 0.06478,0.02174 0.102173,0.03043 1.01563,0.178257 2.029522,0.356515 3.045154,0.534772 0.258256,0.04348 0.4126,-0.13478 0.435643,-0.339124 0.01304,-0.03478 0.02435,-0.06956 0.02913,-0.108693 l 0.123476,-1.008675 c 0.03261,-0.260864 -0.156084,-0.413035 -0.359123,-0.439121"
       style="fill:#337ab7;fill-opacity:1;fill-rule:nonzero;stroke:none"
       id="path3561" />
    <path
       inkscape:connector-curvature="0"
       d="m 16.793043,15.682617 c 0.03565,-0.01304 0.07304,-0.02174 0.115215,-0.02609 1.010848,-0.104345 2.021697,-0.208691 3.03211,-0.313037 0.245648,-0.02609 0.396949,0.143476 0.433905,0.330428 0.04565,0.05652 0.07652,0.121737 0.0813,0.199996 0.01478,0.23043 0.02956,0.46086 0.04565,0.69129 0.01304,0.208692 -0.115215,0.40434 -0.328255,0.443469 -0.03261,0.01739 -0.06478,0.02609 -0.10391,0.03478 -1.013892,0.178257 -2.029958,0.356515 -3.045589,0.534772 -0.258256,0.04348 -0.4126,-0.13478 -0.435209,-0.339124 -0.01304,-0.03043 -0.02435,-0.06522 -0.02913,-0.104345 l -0.123475,-1.008675 c -0.03261,-0.260864 0.154344,-0.417383 0.357384,-0.443469"
       style="fill:#337ab7;fill-opacity:1;fill-rule:nonzero;stroke:none"
       id="path3563" />
    <path
       inkscape:connector-curvature="0"
       d="m 13.87919,13.930479 c -0.609118,-0.01304 -1.218671,-0.02609 -1.827788,-0.03913 -0.523468,-0.01304 -0.523468,0.799984 0,0.813027 0.609117,0.01304 1.21867,0.02609 1.827788,0.03913 0.524772,0.01304 0.523467,-0.799984 0,-0.813027"
       style="fill:#337ab7;fill-opacity:1;fill-rule:nonzero;stroke:none"
       id="path3565" />
    <path
       inkscape:connector-curvature="0"
       d="m 17.707806,13.930479 c 0.609553,-0.01304 1.21867,-0.02609 1.828223,-0.03913 0.523033,-0.01304 0.523033,0.799984 0,0.813027 -0.609553,0.01304 -1.21867,0.02609 -1.828223,0.03913 -0.524771,0.01304 -0.523032,-0.799984 0,-0.813027"
       style="fill:#337ab7;fill-opacity:1;fill-rule:nonzero;stroke:none"
       id="path3567" />
    <path
       inkscape:connector-curvature="0"
       d="m 14.885256,23.025944 c -0.0813,-1.208671 1.121281,-1.847789 2.047349,-1.513013 -0.157388,0.03478 -0.315211,0.06522 -0.472599,0.1 -0.513468,0.104344 -0.296081,0.886938 0.216083,0.782592 0.342601,-0.06957 0.687377,-0.143476 1.029978,-0.213039 0.02304,0.03913 0.04565,0.08261 0.06522,0.126084 -0.962154,0.239125 -1.923873,0.478251 -2.886027,0.717377 z m 3.750357,-0.721725 c -0.391731,-1.239104 -1.48823,-1.878222 -2.75603,-1.682573 -1.32432,0.199996 -1.972568,1.608661 -1.754746,2.808637 -0.05043,0.260864 0.157388,0.582596 0.497381,0.499989 1.213453,-0.304341 2.42908,-0.604335 3.642968,-0.904328 0.195214,-0.04783 0.282603,-0.195649 0.289559,-0.347819 0.08739,-0.08696 0.131302,-0.217387 0.08087,-0.373906"
       style="fill:#337ab7;fill-opacity:1;fill-rule:nonzero;stroke:none"
       id="path3569" />
    <path
       inkscape:connector-curvature="0"
       d="m 16.162621,19.182544 c -0.281299,-0.143475 -0.560858,-0.28695 -0.841722,-0.426077 0.172171,-0.126085 0.34608,-0.252169 0.51999,-0.378253 0.02913,-0.02174 0.05522,-0.04783 0.07956,-0.06957 0.09565,-0.07826 0.160866,-0.1913 0.160866,-0.321731 l 0,-0.691291 c 0,-0.221735 -0.185213,-0.40434 -0.406513,-0.40434 -0.220865,0 -0.406078,0.182605 -0.406078,0.40434 l 0,0.499989 -0.853026,0.613032 c -0.0213,0.01739 -0.04087,0.03478 -0.05869,0.05217 -0.251734,0.139127 -0.357385,0.530423 -0.02913,0.699985 l 1.425187,0.721723 c 0.464773,0.239126 0.877373,-0.460859 0.409557,-0.699985"
       style="fill:#337ab7;fill-opacity:1;fill-rule:nonzero;stroke:none"
       id="path3571" />
  </g>
</svg>
