<?xml version="1.0" encoding="UTF-8" standalone="no"?>
<!-- Created with Inkscape (http://www.inkscape.org/) -->

<svg
   xmlns:dc="http://purl.org/dc/elements/1.1/"
   xmlns:cc="http://creativecommons.org/ns#"
   xmlns:rdf="http://www.w3.org/1999/02/22-rdf-syntax-ns#"
   xmlns:svg="http://www.w3.org/2000/svg"
   xmlns="http://www.w3.org/2000/svg"
   xmlns:sodipodi="http://sodipodi.sourceforge.net/DTD/sodipodi-0.dtd"
   xmlns:inkscape="http://www.inkscape.org/namespaces/inkscape"
   width="32px"
   height="32px"
   id="svg6802"
   version="1.1"
   inkscape:version="0.48.4 r9939"
   sodipodi:docname="60f.svg"
   inkscape:export-filename="/home/nebojsa/Documents/EU Life/avatars/60f.png"
   inkscape:export-xdpi="135"
   inkscape:export-ydpi="135">
  <defs
     id="defs6804" />
  <sodipodi:namedview
     id="base"
     pagecolor="#ffffff"
     bordercolor="#666666"
     borderopacity="1.0"
     inkscape:pageopacity="0.0"
     inkscape:pageshadow="2"
     inkscape:zoom="11.197802"
     inkscape:cx="0.10402327"
     inkscape:cy="16"
     inkscape:current-layer="layer1"
     showgrid="true"
     inkscape:grid-bbox="true"
     inkscape:document-units="px"
     inkscape:window-width="1301"
     inkscape:window-height="744"
     inkscape:window-x="65"
     inkscape:window-y="24"
     inkscape:window-maximized="1" />
  <metadata
     id="metadata6807">
    <rdf:RDF>
      <cc:Work
         rdf:about="">
        <dc:format>image/svg+xml</dc:format>
        <dc:type
           rdf:resource="http://purl.org/dc/dcmitype/StillImage" />
        <dc:title></dc:title>
      </cc:Work>
    </rdf:RDF>
  </metadata>
  <g
     id="layer1"
     inkscape:label="Layer 1"
     inkscape:groupmode="layer">
    <path
       inkscape:connector-curvature="0"
       d="m 23.541066,9.6481576 c 0.598382,0.3868814 0.723597,0.7123604 0.201868,0.8761024 -0.533366,0.07184 -1.424318,-0.9615854 -1.797554,-1.2810444 -0.148894,-0.127623 -0.296582,-0.256449 -0.444673,-0.384072 0.134043,0.0088 0.269292,0.01365 0.405343,0.01645 0.02207,0.006 0.04455,0.01204 0.06622,0.01967 0.389692,0.124412 0.758112,0.299793 1.120112,0.488819 0.152505,0.08267 0.3022,0.169762 0.448686,0.264075 z M 23.022548,21.774329 c -0.116786,0.107957 -0.30501,0.140867 -0.46474,0.19344 -0.01806,0.0056 -0.09873,-0.07946 -0.09431,-0.117187 0.03853,-0.315045 0.0895,-0.628482 0.138459,-0.941921 0.0064,-0.04214 0.01646,-0.08548 0.03652,-0.121603 0.236383,-0.424607 0.474773,-0.847608 0.719183,-1.283853 0.206282,0.121602 0.267686,0.333103 0.285344,0.536979 0.05699,0.667411 -0.114379,1.270609 -0.620455,1.734145 z m -2.493862,2.276742 c -0.47116,0.921051 -1.088004,1.732539 -1.86578,2.416806 -0.850819,0.746874 -1.818023,1.279036 -2.948969,1.450405 -1.161047,0.175381 -2.232195,-0.119998 -3.222275,-0.718781 -1.549533,-0.937506 -2.5737257,-2.312862 -3.2451497,-3.969149 -0.344341,-0.848812 -0.547815,-1.732138 -0.626476,-2.645564 -0.0032,-0.03773 -0.01244,-0.07384 -0.02368,-0.111168 0.0052,-0.02689 0.01084,-0.05378 0.01645,-0.08267 0.54621,1.122116 1.6976247,1.897886 3.0268267,1.897886 1.817622,0 3.302541,-1.4492 3.361938,-3.253577 l 0.126418,0 c 0.0594,1.804377 1.543915,3.253577 3.361536,3.253577 1.194759,0 2.245439,-0.627277 2.842618,-1.567592 0.04334,0.128827 0.08869,0.24762 0.13605,0.350762 -0.142473,1.047069 -0.458719,2.038754 -0.939513,2.979069 z M 7.1098343,21.774329 c -0.483603,-0.399323 -0.756507,-1.359304 -0.550625,-1.948456 0.04254,-0.123207 0.128827,-0.22956 0.221132,-0.390091 0.08709,0.178591 0.14167,0.295378 0.201468,0.41096 0.09752,0.184612 0.177388,0.383672 0.301398,0.550223 0.230364,0.309024 0.282938,0.662997 0.326282,1.026201 0.02087,0.17538 0.05699,0.349557 0.08709,0.526544 -0.251634,0.08227 -0.424206,-0.04054 -0.586743,-0.175381 z m 7.1444667,-2.850242 c 0,1.441575 -1.172685,2.614259 -2.614662,2.614259 -1.441575,0 -2.6146617,-1.172684 -2.6146617,-2.614259 0,-1.44278 1.1730867,-2.615866 2.6146617,-2.615866 1.441977,0 2.614662,1.173086 2.614662,2.615866 z m 4.23523,-3.365951 c -1.689196,0 -3.091441,1.252549 -3.328627,2.877132 l -0.192638,0 c -0.236784,-1.624583 -1.639029,-2.877132 -3.328627,-2.877132 -1.041049,0 -1.9725337,0.475575 -2.5905807,1.220845 0.0088,-0.662997 -0.05057,-1.226865 -0.222337,-1.543515 -0.650154,-1.199974 3.5497587,-2.750711 2.6997437,-2.001028 -0.850016,0.750085 -1.6498657,1.101248 0.300194,1.050279 1.95006,-0.04976 6.149973,-1.050279 7.54981,-0.750084 1.234089,0.265278 1.690401,1.462444 1.678762,3.215853 -0.617646,-0.728814 -1.538296,-1.19235 -2.5657,-1.19235 z m 2.569312,3.841526 c -0.224344,1.214825 -1.289873,2.138684 -2.569312,2.138684 -1.441575,0 -2.61426,-1.172684 -2.61426,-2.614259 0,-1.44278 1.172685,-2.615866 2.61426,-2.615866 1.189541,0 2.193667,0.799448 2.509915,1.888656 -0.004,0.43464 0.01846,0.836772 0.0594,1.202785 z M 25.377549,9.2789347 C 24.628669,8.1331386 23.249299,8.2904596 21.967854,8.2667816 21.56813,8.1467837 21.159175,8.0568856 20.746207,7.9978906 c 0.38327,-0.269694 1.326395,-0.761724 1.351277,-0.803863 0.759315,-0.529354 0.656575,-1.256965 0.656575,-2.2530639 0,-1.618561 -0.711557,-2.0291221 -2.329317,-2.0291221 -1.61816,0 -2.929705,0.2608641 -2.929705,1.879427 0,0.446679 0.102741,0.868477 0.281733,1.2465281 0.06381,0.413771 0.01806,0.8323579 -0.122405,1.22847 -0.376046,-0.111168 -0.764132,-0.201066 -1.164659,-0.268891 -0.296983,-0.05097 -0.597579,-0.08067 -0.89657,-0.121201 -0.363203,0 -0.726005,0 -1.089208,0 -0.314642,0.04655 -0.632094,0.08107 -0.943927,0.144077 -3.6360447,0.734834 -6.0291717,2.875526 -7.1372437,6.4092323 -0.502866,1.603713 -0.466746,3.239933 -0.02448,4.863311 0.0096,0.03452 0.01886,0.07023 0.02689,0.104747 0.0024,0.01044 3.6e-4,0.02248 3.6e-4,0.04495 -0.612027,0.272905 -0.900985,0.78179 -1.010146,1.420707 -0.01084,0.06421 -0.03813,0.126017 -0.05779,0.187421 0,0.145682 0,0.290963 0,0.436646 0.061,0.25645 0.107957,0.517313 0.186618,0.769349 0.17217,0.553433 0.461127,1.036633 0.915834,1.407061 0.446279,0.362801 0.945933,0.52213 1.527459,0.359992 0.104747,0.271299 0.200264,0.542999 0.313439,0.807074 0.755704,1.757822 1.8778197,3.215852 3.5116327,4.246468 0.790619,0.499654 1.646254,0.829548 2.579345,0.944728 0.07505,0.0092 0.147288,0.04375 0.221132,0.06622 0.290162,0 0.580724,0 0.870885,0 0.37725,-0.07946 0.760921,-0.139662 1.130947,-0.24441 1.459234,-0.415777 2.633123,-1.270609 3.617183,-2.401555 0.838779,-0.964394 1.451208,-2.059624 1.864176,-3.268428 0.01525,-0.04495 0.03451,-0.08869 0.05739,-0.147288 0.654167,0.174178 1.197567,-0.03893 1.671538,-0.484404 0.281331,-0.265279 0.495642,-0.580322 0.645739,-0.933091 0.232369,-0.547414 0.366815,-1.112887 0.267284,-1.712874 -0.106352,-0.642127 -0.383269,-1.167066 -1.012152,-1.449202 0.07344,-0.350761 0.162137,-0.694299 0.217119,-1.043857 0.4226,-2.683691 -0.198658,-5.102905 -1.91073,-7.211891 -0.08348,-0.103543 -0.168959,-0.2038763 -0.255245,-0.3013993 0.333505,0.2833393 0.669818,0.5622633 1.012554,0.8339633 0.47076,0.373236 1.454017,0.679451 1.769462,-0.07063 0.347552,-0.8263383 -0.421797,-1.3605073 -1.057905,-1.7265203 0.693899,0.09913 1.316762,0.3796579 1.61174,1.1369673 0.595171,1.528664 -0.4226,3.400465 1.006936,4.648599 0.290161,0.253641 0.716372,-0.169762 0.424605,-0.424606 -1.395823,-1.218035 -0.191032,-3.516048 -1.167066,-5.0085924"
       style="fill:#337ab7;fill-opacity:1;fill-rule:nonzero;stroke:none"
       id="path966" />
    <path
       inkscape:connector-curvature="0"
       d="m 9.7132583,19.119132 1.1040567,0 c 0.12682,0.331499 0.453101,0.595573 0.814298,0.604403 0.414573,0.01204 0.753697,-0.23558 0.910616,-0.604403 l 1.023792,0 c 0.449088,0 0.449088,-0.695905 0,-0.695905 l -3.8527627,0 c -0.449088,0 -0.449088,0.695905 0,0.695905"
       style="fill:#337ab7;fill-opacity:1;fill-rule:nonzero;stroke:none"
       id="path1152" />
    <path
       inkscape:connector-curvature="0"
       d="m 16.56315,19.119132 1.104458,0 c 0.126419,0.331499 0.4527,0.595573 0.813896,0.604403 0.414574,0.01204 0.753698,-0.23558 0.910618,-0.604403 l 1.024193,0 c 0.448686,0 0.448686,-0.695905 0,-0.695905 l -3.853165,0 c -0.449088,0 -0.449088,0.695905 0,0.695905"
       style="fill:#337ab7;fill-opacity:1;fill-rule:nonzero;stroke:none"
       id="path1154" />
    <path
       inkscape:connector-curvature="0"
       d="m 16.112858,22.45378 c 0.340729,-0.343539 -0.189428,-0.874498 -0.530156,-0.53096 -0.277319,0.280128 -0.725604,0.298188 -0.973224,-0.03772 -0.28374,-0.384073 -0.935098,-0.01044 -0.647746,0.379657 0.528551,0.715571 1.507795,0.838378 2.151126,0.189027"
       style="fill:#337ab7;fill-opacity:1;fill-rule:nonzero;stroke:none"
       id="path1156" />
    <path
       inkscape:connector-curvature="0"
       d="m 15.260434,24.670723 c -0.01766,-0.0048 -0.03451,-0.0092 -0.05097,-0.01043 -0.04174,-0.02127 -0.0915,-0.0301 -0.14809,-0.01966 -0.461529,0.0899 -0.918242,0.109563 -1.371745,0.06742 0.398521,-0.173776 0.830753,-0.416981 1.254556,-0.191836 0.05659,0.0301 0.11157,0.03452 0.160934,0.02087 0.04896,0.01365 0.103944,0.0092 0.160933,-0.02087 0.45591,-0.241599 0.922255,0.0586 1.345256,0.229159 0.05257,0.02127 0.104346,0.04094 0.155315,0.0586 -0.498452,0.07224 -1.001317,0.03171 -1.50619,-0.133242 z m -1.68438,0.476779 c 0.504873,0.05097 1.013357,0.03171 1.525454,-0.0598 0.01204,0.0076 0.02488,0.01324 0.03933,0.01806 0.364407,0.118392 0.734834,0.176986 1.10486,0.183006 -0.877708,0.292568 -1.818424,0.250429 -2.669644,-0.141269 z m 3.959919,-0.68547 c -0.876906,0.140867 -1.544317,-0.776973 -2.430853,-0.366013 -0.886939,-0.41096 -1.553948,0.50688 -2.430853,0.366013 -0.190632,-0.0313 -0.307419,0.152907 -0.277319,0.292569 -0.0297,0.07063 -0.01886,0.151302 0.0618,0.215916 1.519032,1.21362 3.546147,1.291478 5.120965,0.126017 0.02287,-0.01646 0.04013,-0.03572 0.05418,-0.05699 0.0096,-0.0028 0.01967,-0.006 0.0293,-0.0088 0.119998,-0.04816 0.161735,-0.162137 0.147689,-0.264075 0.03973,-0.139663 -0.07906,-0.335913 -0.27491,-0.304609"
       style="fill:#337ab7;fill-opacity:1;fill-rule:nonzero;stroke:none"
       id="path1158" />
  </g>
</svg>
