<?xml version="1.0" encoding="UTF-8" standalone="no"?>
<!-- Created with Inkscape (http://www.inkscape.org/) -->

<svg
   xmlns:dc="http://purl.org/dc/elements/1.1/"
   xmlns:cc="http://creativecommons.org/ns#"
   xmlns:rdf="http://www.w3.org/1999/02/22-rdf-syntax-ns#"
   xmlns:svg="http://www.w3.org/2000/svg"
   xmlns="http://www.w3.org/2000/svg"
   xmlns:sodipodi="http://sodipodi.sourceforge.net/DTD/sodipodi-0.dtd"
   xmlns:inkscape="http://www.inkscape.org/namespaces/inkscape"
   width="32px"
   height="32px"
   id="svg4720"
   version="1.1"
   inkscape:version="0.48.4 r9939"
   sodipodi:docname="60m.svg"
   inkscape:export-filename="/home/nebojsa/Documents/EU Life/avatars/60m.png"
   inkscape:export-xdpi="135"
   inkscape:export-ydpi="135">
  <defs
     id="defs4722" />
  <sodipodi:namedview
     id="base"
     pagecolor="#ffffff"
     bordercolor="#666666"
     borderopacity="1.0"
     inkscape:pageopacity="0.0"
     inkscape:pageshadow="2"
     inkscape:zoom="11.197802"
     inkscape:cx="0.10402327"
     inkscape:cy="16"
     inkscape:current-layer="layer1"
     showgrid="true"
     inkscape:grid-bbox="true"
     inkscape:document-units="px"
     inkscape:window-width="1301"
     inkscape:window-height="744"
     inkscape:window-x="65"
     inkscape:window-y="24"
     inkscape:window-maximized="1" />
  <metadata
     id="metadata4725">
    <rdf:RDF>
      <cc:Work
         rdf:about="">
        <dc:format>image/svg+xml</dc:format>
        <dc:type
           rdf:resource="http://purl.org/dc/dcmitype/StillImage" />
        <dc:title></dc:title>
      </cc:Work>
    </rdf:RDF>
  </metadata>
  <g
     id="layer1"
     inkscape:label="Layer 1"
     inkscape:groupmode="layer">
    <path
       inkscape:connector-curvature="0"
       d="m 10.036037,18.097783 0.210605,0.495642 c 1.962569,4.643382 4.184175,7.525932 5.797924,7.530279 l 0.0037,0.65216 0,-0.65216 c 1.646531,0 3.91805,-2.891244 5.928226,-7.543322 l 0.214648,-0.495641 0.527684,0.121735 c 0.208866,0.04783 0.425252,0.07391 0.643161,0.07391 1.017109,0 1.90909,-0.547815 1.90909,-1.169541 0,-0.521728 -0.638595,-1.008675 -1.48536,-1.134759 l -0.740464,-0.108693 0.21091,-0.717377 c 0.12091,-0.413035 0.147257,-0.578249 0.152518,-0.617378 l 0.0037,-0.02609 c 0.06726,-0.395644 0.102216,-0.799983 0.104433,-1.199975 l 9.1e-4,-0.04782 c 0,-4.0651345 -3.31667,-7.3824565 -7.393717,-7.3824565 -4.077003,0 -7.3936732,3.317322 -7.3936732,7.3911515 l 7.8e-4,0.03913 c 0.0022,0.399992 0.03739,0.804331 0.104606,1.199975 l 0.0037,0.02609 c 0.0051,0.03913 0.03091,0.204343 0.148432,0.61303 l 0.210604,0.73042 -0.756767,0.09565 c -0.870591,0.104346 -1.55262,0.604336 -1.55262,1.139107 0,0.621726 0.892112,1.169541 1.909091,1.169541 0.0053,0 0.02104,-0.0043 0.03704,-0.0043 0.02987,0 0.04565,0.0043 0.0613,0.0043 0.202084,0 0.410993,-0.02174 0.611076,-0.06956 l 0.5283372,-0.113042 z m 6.012268,9.325895 -0.007,0 c -1.549055,-0.0043 -3.971744,-1.386929 -6.7931652,-7.860707 -0.13504,0.01304 -0.273255,0.02174 -0.407252,0.01739 -0.01209,0 -0.02717,0 -0.04265,0 -1.799571,0 -3.209151,-1.082587 -3.209151,-2.469515 0,-1.021718 0.800245,-1.908656 1.982263,-2.278214 -0.008,-0.04348 -0.01443,-0.08261 -0.01935,-0.121736 -0.07761,-0.46086 -0.118042,-0.930416 -0.120562,-1.391276 l -0.0012,-0.03913 c 3e-6,-4.8042485 3.9000542,-8.7041675 8.6937812,-8.7041675 4.793727,0 8.693777,3.899919 8.693777,8.6911245 l -0.001,0.05217 c -0.0026,0.46086 -0.043,0.930416 -0.120606,1.391276 -0.0058,0.04348 -0.01391,0.0913 -0.02396,0.143475 1.146237,0.382601 1.898918,1.2478 1.898918,2.256475 0,1.386928 -1.409624,2.469515 -3.209152,2.469515 -0.132128,0 -0.26395,-0.0087 -0.394862,-0.02174 -2.886209,6.486823 -5.347941,7.865056 -6.918908,7.865056"
       style="fill:#337ab7;fill-opacity:1;fill-rule:nonzero;stroke:none"
       id="path3467" />
    <path
       inkscape:connector-curvature="0"
       d="m 7.9746028,16.910851 6.6440362,0 0,-2.069522 -6.6440362,0 0,2.069522 z m 7.0502892,0.813026 -7.4565422,0 c -0.224343,0 -0.406252,-0.182604 -0.406252,-0.404339 l 0,-2.886896 c 0,-0.221735 0.181909,-0.40434 0.406252,-0.40434 l 7.4565422,0 c 0.224343,0 0.406252,0.182605 0.406252,0.40434 l 0,2.886896 c 0,0.221735 -0.181909,0.404339 -0.406252,0.404339"
       style="fill:#337ab7;fill-opacity:1;fill-rule:nonzero;stroke:none"
       id="path3585" />
    <path
       inkscape:connector-curvature="0"
       d="m 18.025656,16.910851 6.643907,0 0,-2.069522 -6.643907,0 0,2.069522 z m 7.050158,0.813026 -7.456367,0 c -0.224517,0 -0.406253,-0.182604 -0.406253,-0.404339 l 0,-2.886896 c 0,-0.221735 0.181736,-0.40434 0.406253,-0.40434 l 7.456367,0 c 0.224518,0 0.40621,0.182605 0.40621,0.40434 l 0,2.886896 c 0,0.221735 -0.181692,0.404339 -0.40621,0.404339"
       style="fill:#337ab7;fill-opacity:1;fill-rule:nonzero;stroke:none"
       id="path3589" />
    <path
       inkscape:connector-curvature="0"
       d="m 17.378452,15.084802 -2.112565,0 c -0.523946,0 -0.523946,0.813027 0,0.813027 l 2.112565,0 c 0.523945,0 0.523945,-0.813027 0,-0.813027"
       style="fill:#337ab7;fill-opacity:1;fill-rule:nonzero;stroke:none"
       id="path3591" />
    <path
       inkscape:connector-curvature="0"
       d="m 15.468317,13.150059 c -0.01187,-0.03478 -0.158953,-0.539119 -0.436469,-0.539119 l -4.224956,0 c -0.523902,0 -0.523902,0.813027 0,0.813027 l 3.890919,0 c 0.131954,0.573901 -0.609031,0.899981 -0.918328,0.352166 -0.257604,-0.456512 -0.959546,-0.04782 -0.701551,0.408688 0.317385,0.565205 1.015066,0.84346 1.62714,0.61303 0.646074,-0.243473 0.970632,-1.004327 0.763245,-1.647792"
       style="fill:#337ab7;fill-opacity:1;fill-rule:nonzero;stroke:none"
       id="path3597" />
    <path
       inkscape:connector-curvature="0"
       d="m 22.334002,13.150059 c -0.01187,-0.03478 -0.158954,-0.539119 -0.43647,-0.539119 l -4.224956,0 c -0.523902,0 -0.523902,0.813027 0,0.813027 l 3.89092,0 c 0.131954,0.573901 -0.609032,0.899981 -0.918329,0.352166 -0.257603,-0.456512 -0.959546,-0.04782 -0.70155,0.408688 0.317427,0.565205 1.014934,0.84346 1.627182,0.61303 0.646031,-0.243473 0.970589,-1.004327 0.763203,-1.647792"
       style="fill:#337ab7;fill-opacity:1;fill-rule:nonzero;stroke:none"
       id="path3599" />
    <path
       inkscape:connector-curvature="0"
       d="m 18.005656,18.87168 c -0.43886,-0.682594 -0.878069,-1.365189 -1.316929,-2.047783 -0.215996,-0.334776 -0.676421,-0.17391 -0.755072,0.117388 -0.427947,0.704334 -0.855764,1.408667 -1.283408,2.113001 -0.272603,0.447816 0.429991,0.856503 0.70142,0.408686 l 1.004719,-1.652139 c 0.315906,0.491294 0.631769,0.97824 0.947676,1.469534 0.282429,0.439122 0.986066,0.03478 0.701594,-0.408687"
       style="fill:#337ab7;fill-opacity:1;fill-rule:nonzero;stroke:none"
       id="path3601" />
    <path
       inkscape:connector-curvature="0"
       d="m 15.314277,21.941183 c -0.398774,-0.26956 -0.785114,-0.408688 -1.207845,-0.339125 -0.02478,-0.08695 -0.04978,-0.169561 -0.07456,-0.256516 0.731463,-0.360862 1.51849,0.526076 2.146868,0.804331 0.360732,0.160867 0.717377,0.186953 1.068761,0.104346 0.02835,0.06956 0.05656,0.139127 0.08491,0.208691 -0.752376,0.339124 -1.317407,-0.04348 -2.018132,-0.521727 z m 2.904331,0.556509 c -0.12178,-0.299993 -0.24369,-0.595639 -0.365471,-0.895634 -0.08374,-0.204343 -0.26682,-0.347819 -0.499815,-0.282602 -0.06795,0.01739 -0.13265,0.06087 -0.185301,0.117389 -0.71942,0.273908 -1.406753,-0.569553 -2.008958,-0.817375 -0.528207,-0.217387 -2.04261,-0.06522 -2.038002,0.513033 0.0029,0.360862 0.205822,0.695638 0.308907,1.047804 0.06913,0.234778 0.277342,0.313038 0.464512,0.273908 0.0703,0.0087 0.145041,0 0.221952,-0.03043 0.457034,-0.204343 0.860895,0.313038 1.196671,0.543468 0.30095,0.204343 0.581684,0.330428 0.936807,0.417382 0.6219,0.143476 1.277626,-0.04348 1.795137,-0.391296 0.118693,-0.07826 0.172865,-0.186952 0.182039,-0.299993 0.01683,-0.06522 0.01783,-0.130432 -0.0085,-0.195649"
       style="fill:#337ab7;fill-opacity:1;fill-rule:nonzero;stroke:none"
       id="path3603" />
    <path
       inkscape:connector-curvature="0"
       d="m 25.316809,8.6675425 c -0.02226,-1.273886 -1.061282,-2.299952 -2.34169,-2.299952 -1.294451,0 -2.344039,1.047804 -2.344039,2.34343 0,0.899981 0.510033,1.6825745 1.256627,2.0738705 -0.0058,0.06956 -0.0107,0.143475 -0.0107,0.213039 0,1.391276 1.11563,2.517339 2.491601,2.517339 1.376319,0 2.491818,-1.126063 2.491818,-2.517339 0,-1.0521525 -0.6379,-1.9521345 -1.54362,-2.3303875"
       style="fill:#337ab7;fill-opacity:1;fill-rule:nonzero;stroke:none"
       id="path3605" />
    <path
       inkscape:connector-curvature="0"
       d="m 11.368706,8.7110205 c 0,-1.295626 -1.049413,-2.34343 -2.3438642,-2.34343 -1.280365,0 -2.319431,1.026066 -2.341648,2.299952 -0.90572,0.378253 -1.54362,1.278235 -1.54362,2.3303875 0,1.391276 1.115455,2.517339 2.491601,2.517339 1.376188,0 2.4918182,-1.126063 2.4918182,-2.517339 0,-0.06956 -0.0049,-0.143475 -0.01069,-0.213039 0.746593,-0.391296 1.256409,-1.1738895 1.256409,-2.0738705"
       style="fill:#337ab7;fill-opacity:1;fill-rule:nonzero;stroke:none"
       id="path3607" />
  </g>
</svg>
